<?xml version="1.0" encoding="UTF-8" standalone="no"?>
<svg
   xmlns:dc="http://purl.org/dc/elements/1.1/"
   xmlns:cc="http://creativecommons.org/ns#"
   xmlns:rdf="http://www.w3.org/1999/02/22-rdf-syntax-ns#"
   xmlns:svg="http://www.w3.org/2000/svg"
   xmlns="http://www.w3.org/2000/svg"
   xmlns:xlink="http://www.w3.org/1999/xlink"
   xmlns:sodipodi="http://sodipodi.sourceforge.net/DTD/sodipodi-0.dtd"
   xmlns:inkscape="http://www.inkscape.org/namespaces/inkscape"
   version="1.1"
   height="244.54906"
   width="169.01215"
   viewBox="-0.2 -236 169.075 244.54907"
   id="svg2"
   inkscape:version="0.48.2 r9819"
   sodipodi:docname="card_back.svg">
  <metadata
     id="metadata3375">
    <rdf:RDF>
      <cc:Work
         rdf:about="">
        <dc:format>image/svg+xml</dc:format>
        <dc:type
           rdf:resource="http://purl.org/dc/dcmitype/StillImage" />
        <dc:title />
      </cc:Work>
    </rdf:RDF>
  </metadata>
  <sodipodi:namedview
     pagecolor="#ffffff"
     bordercolor="#666666"
     borderopacity="1"
     objecttolerance="10"
     gridtolerance="10"
     guidetolerance="10"
     inkscape:pageopacity="0"
     inkscape:pageshadow="2"
     inkscape:window-width="1362"
     inkscape:window-height="724"
     id="namedview3373"
     showgrid="false"
     inkscape:zoom="1.6097119"
     inkscape:cx="79.965229"
     inkscape:cy="129.33629"
     inkscape:window-x="4"
     inkscape:window-y="0"
     inkscape:window-maximized="1"
     inkscape:current-layer="svg2"
     fit-margin-top="0"
     fit-margin-left="0"
     fit-margin-right="0"
     fit-margin-bottom="0" />
  <!-- SVG-cards 2.0.1								-->
  <!-- This set of SVG files is a complete cards game with figures, numbers	-->
  <!--	and backs of cards completely designed in SVG.				-->
  <!--										-->
  <!--	Copyright (C) 2005 David Bellot						-->
  <!--										-->
  <!--	This library is free software; you can redistribute it and/or		-->
  <!--	modify it under the terms of the GNU Lesser General Public		-->
  <!--	License as published by the Free Software Foundation; either		-->
  <!--	version 2 of the License, or (at your option) any later version		-->
  <!--										-->
  <!--	This library is distributed in the hope that it will be useful,		-->
  <!--	but WITHOUT ANY WARRANTY; without even the implied warranty of		-->
  <!--	MERCHANTABILITY or FITNESS FOR A PARTICULAR PURPOSE.  See the GNU	-->
  <!--	Lesser General Public License for more details.				-->
  <!--										-->
  <!--	You should have received a copy of the GNU Lesser General Public	-->
  <!--	License along with this library; if not, write to the Free Software	-->
  <!--	Foundation, Inc., 59 Temple Place, Suite 330, Boston, MA 02111-1307  USA-->
  <!--                                                                            -->
  <!--	Contact the author David Bellot at david.bellot@free.fr			-->
  <defs
     id="defs4">
    <g
       id="base">
      <path
         style="fill:#ffffff;stroke:#000000;stroke-width:2.5"
         d="m 0,0 c 0,3.78 3.09,6.87 6.87,6.87 l 152.845,0 c 3.77,0 6.86,-3.09 6.86,-6.87 l 0,-228.4 c 0,-3.78 -3.09,-6.87 -6.86,-6.87 l -152.845,0 c -3.78,0 -6.87,3.09 -6.87,6.87 L 0,0 z"
         id="path49"
         inkscape:connector-curvature="0" />
    </g>
    <g
       transform="matrix(1,0,0,0.95,-190.33,54.46)"
       id="lace"
       style="fill:none;stroke:#ffffff;stroke-width:0.32088342;stroke-miterlimit:40;stroke-opacity:1;stroke-dasharray:none">
      <path
         d="m 585.84,796.83 c -0.65,0.05 -2.12,0.95 0.23,-0.34 0.48,-0.26 -0.87,0.66 -1.17,1.11 -0.89,1.73 -0.46,3.67 0.15,5.43 1.29,3.4 2.77,6.73 4.02,10.15 0.75,1.79 0.1,3.43 -1.01,4.92 -1.17,1.45 -2.66,2.62 -4.2,3.67 l -1.55,0.61 c 1.55,-1.03 3.05,-2.19 4.24,-3.63 1.09,-1.43 1.75,-3.02 1.08,-4.77 -1.16,-3.45 -2.7,-6.77 -4,-10.17 -0.64,-1.77 -1.14,-3.76 -0.26,-5.54 0.8,-1.29 2.37,-2.25 3.86,-2.45 l -1.39,1.01 z"
         transform="translate(-41.66,-51.43)"
         style="fill:none;stroke:#ffffff;stroke-width:0.32088342;stroke-linecap:butt;stroke-linejoin:miter;stroke-miterlimit:40;stroke-opacity:1;stroke-dasharray:none"
         id="path638"
         inkscape:connector-curvature="0" />
      <path
         d="m 585.84,796.83 c -0.65,0.05 -2.12,0.95 0.23,-0.34 0.48,-0.26 -0.87,0.66 -1.17,1.11 -0.89,1.73 -0.46,3.67 0.15,5.43 1.29,3.4 2.77,6.73 4.02,10.15 0.75,1.79 0.1,3.43 -1.01,4.92 -1.17,1.45 -2.66,2.62 -4.2,3.67 l -1.55,0.61 c 1.55,-1.03 3.05,-2.19 4.24,-3.63 1.09,-1.43 1.75,-3.02 1.08,-4.77 -1.16,-3.45 -2.7,-6.77 -4,-10.17 -0.64,-1.77 -1.14,-3.76 -0.26,-5.54 0.8,-1.29 2.37,-2.25 3.86,-2.45 l -1.39,1.01 z"
         transform="matrix(-1,0,0,-1,1129.5,1572.4)"
         style="fill:none;stroke:#ffffff;stroke-width:0.32088342;stroke-linecap:butt;stroke-linejoin:miter;stroke-miterlimit:40;stroke-opacity:1;stroke-dasharray:none"
         id="path640"
         inkscape:connector-curvature="0" />
    </g>
    <g
       transform="matrix(0.4,0,0,0.4,236.59,667.12)"
       id="lys"
       style="fill:#ffffff;fill-opacity:1;stroke:none">
      <path
         d="m 355.65,280.19 c 0,0 -3.75,-8.1 -8.1,-12.6 -4.36,-4.51 -9.68,-7.58 -11.04,-6.53"
         transform="translate(-1.35,-0.76)"
         style="fill:#ffffff;fill-opacity:1;fill-rule:evenodd;stroke:none"
         id="lys_1"
         inkscape:connector-curvature="0" />
      <path
         d="m 368.97,258.94 c -2.29,0.08 -5.9,1.92 -7.85,3.87 -2.59,2.6 -3.52,7.58 -3.59,9.44 -0.07,1.86 -1.32,-0.84 -2.19,-2.37 -0.86,-1.54 -1.93,-5.4 -2.22,-3.22 -0.28,2.2 -0.34,3.26 0.07,5.72 0.4,2.45 1.59,7.15 2.56,8.68 l 3.97,3.94 c 1.87,-1.88 3.1,-6.25 3.19,-6.25 l -0.07,9.34 4.35,4.32 c -1.16,-2.37 -1.94,-6.58 -1.63,-10.38 0.32,-3.8 2.3,-8.59 2.06,-10.44 -1.14,-0.4 -2.9,2.58 -5.21,1.88 -0.08,-1.75 0.74,-6.02 1.9,-7.69 1.17,-1.66 4.43,-5.7 6.41,-6.28 -0.36,-0.42 -0.99,-0.59 -1.75,-0.56 z"
         style="fill:#ffffff;fill-opacity:1;fill-rule:evenodd;stroke:none"
         id="lys_2"
         inkscape:connector-curvature="0" />
      <path
         d="m 329.36,254.28 c 9.62,-4.95 19.64,8.3 19.64,8.3 0,0 1.44,-9.25 3.32,-9.36 1.88,-0.11 4.87,7.31 4.87,7.31 0,0 5.76,-7.64 15.72,-7.58 9.97,0.05 11.57,9.13 5.87,9.57 -5.66,0.44 -2.38,-5.15 -2.27,-3.65 0.06,0.17 -5.37,-7.75 -19.15,7.86 -2.03,2.3 -3.94,-8.46 -4.93,-6.09 -1.21,2.88 -0.22,6.26 -1.11,8.53 1.39,1.71 -11.35,-13.84 -16.77,-9.58"
         transform="translate(-1.35,-0.76)"
         style="fill:#ffffff;fill-opacity:1;fill-rule:evenodd;stroke:none"
         id="lys_3"
         inkscape:connector-curvature="0" />
      <use
         transform="matrix(0,1,1,0,74.5,-74.49)"
         xlink:href="#lys_3"
         style="fill:#ffffff;fill-opacity:1;stroke:none"
         id="use646"
         x="0"
         y="0"
         width="2178.99"
         height="1216.1899" />
      <use
         transform="matrix(0,1,1,0,74.9,-74.93)"
         xlink:href="#lys_1"
         style="fill:#ffffff;fill-opacity:1;stroke:none"
         id="use648"
         x="0"
         y="0"
         width="2178.99"
         height="1216.1899" />
      <use
         transform="matrix(0,1,1,0,74.82,-74.82)"
         xlink:href="#lys_2"
         style="fill:#ffffff;fill-opacity:1;stroke:none"
         id="use650"
         x="0"
         y="0"
         width="2178.99"
         height="1216.1899" />
    </g>
    <g
       id="twist"
       style="fill:none;stroke:#ffffff;stroke-width:1.25100005;stroke-linecap:round;stroke-linejoin:round;stroke-miterlimit:4;stroke-opacity:1;stroke-dasharray:none"
       transform="matrix(0.3394,0.3394,-0.3394,0.3394,444.557,315.274)">
      <path
         style="fill:none;stroke:#ffffff;stroke-width:1.25100005;stroke-miterlimit:4;stroke-opacity:1;stroke-dasharray:none"
         d="m 508.992,779.917 c -2.054,-1.516 -2.26,-4.512 -0.747,-6.48 1.827,-2.375 5.344,-2.595 7.638,-0.777 2.696,2.137 2.93,6.176 0.807,8.795 -2.447,3.018 -7.009,3.265 -9.953,0.837 -3.34,-2.755 -3.601,-7.842 -0.866,-11.11 2.394,-2.862 6.495,-3.76 9.915,-2.335"
         transform="matrix(0.7518,0.3005,-0.3107,0.7774,372.862,20.8342)"
         id="path653"
         inkscape:connector-curvature="0" />
      <path
         style="fill:none;stroke:#ffffff;stroke-width:1.25100005;stroke-miterlimit:4;stroke-opacity:1;stroke-dasharray:none"
         d="m 507.265,776.876 c -0.309,-2.765 1.915,-5.165 4.616,-5.421 3.211,-0.304 5.98,2.289 6.239,5.435 0.3,3.658 -2.663,6.796 -6.255,7.057 -4.104,0.297 -7.612,-3.037 -7.874,-7.075 -0.296,-4.55 3.41,-8.429 7.894,-8.692 3.474,-0.203 6.793,1.741 8.422,4.797"
         transform="matrix(0.7518,0.3005,0.3107,-0.7774,-109.566,1234.952)"
         id="path655"
         inkscape:connector-curvature="0" />
    </g>
    <path
       d="m 418.45,832.87 -1.61,0.58 c -1.01,0.51 -2.11,1.32 -2.44,1.79 -0.56,0.8 -0.64,0.8 -1.51,0.2 -1.38,-0.97 -1.66,-0.79 -1.44,0.9 0.2,1.47 0.16,1.52 -0.96,1.52 -1.39,0 -3,1.12 -4.24,2.94 -1.68,2.47 -0.64,7.28 1.7,9.12 1.48,1.17 2.11,0.6 0.74,-0.85 -1.47,-0.96 -2.59,-4.67 -1.99,-4.67 0.14,0 0.61,0.22 1.04,0.49 0.65,0.4 0.92,0.37 1.49,-0.2 0.61,-0.62 0.62,-0.69 0.05,-0.69 -1.15,0 -1.54,-2.43 -0.59,-3.69 0.58,-0.76 2.3,-1.51 3.45,-1.51 1.74,0 2.79,2.68 1.21,3.09 -0.44,0.11 -0.8,0.37 -0.8,0.57 0,0.64 1.27,0.88 2.04,0.4 1,-0.62 0.99,-0.63 1.54,0.69 0.26,0.63 0.98,1.64 1.6,2.22 l 0.72,0.7 0,-2.61 c -0.11,-0.43 -0.21,-0.83 -0.25,-1.26 -0.05,-0.68 -2.96,-3.8 -3.53,-3.8 -0.21,0 -0.82,-0.47 -1.35,-1.05 l -0.97,-1.05 1.29,0.29 c 1.14,0.24 1.35,0.15 1.68,-0.72 0.47,-1.25 1.75,-2.03 3.13,-2.18 l 0,-1.22 z m -0.2,1.98 c -1.11,0.05 -2.72,1.83 -2.36,3.27 l 0.25,0.99 1.63,-1.47 c 0.34,-0.32 0.5,-0.54 0.68,-0.78 l 0,-1.96 c -0.06,-0.02 -0.12,-0.05 -0.2,-0.05 z m -5.61,11.26 c -0.29,-0.07 -0.49,0.19 -0.49,0.83 0,0.55 -0.18,1.12 -0.4,1.26 -0.22,0.14 -0.83,0.91 -0.83,1.44 l 0.06,0.83 3.07,-1.03 c 1.49,-0.51 2.97,-1.01 3.3,-1.13 0.4,-0.14 0.21,-0.32 -0.56,-0.52 -0.71,-0.19 -1.45,-0.13 -1.89,0.15 -0.6,0.38 -0.8,0.28 -1.23,-0.62 -0.36,-0.72 -0.74,-1.13 -1.03,-1.21 z m -4.32,0.29 c -0.8,0 -0.71,0.31 0.43,1.67 0.55,0.66 1,1.51 1,1.9 0,0.94 -1.5,2.83 -2.23,2.83 -0.76,0 -0.73,0.76 0.03,1.05 0.36,0.14 0.6,0.75 0.6,1.51 0,0.7 0.21,1.5 0.48,1.76 0.38,0.38 0.64,-0.15 1.19,-2.42 0.38,-1.6 0.7,-3.64 0.71,-4.55 0.02,-1.75 -1.16,-3.75 -2.21,-3.75 z m -3.79,0.46 c -0.29,0.1 -0.97,0.46 -1.6,1.11 -0.73,1.2 -0.88,1.59 -0.91,2.9 -0.03,0.95 0.11,2.07 0.31,2.49 0.3,0.65 0.22,0.73 -0.51,0.54 -1.11,-0.29 -1.6,0.46 -0.73,1.1 0.91,0.67 0.84,0.98 -0.54,2.4 l -0.95,0.97 1.1,0 c 0.02,-0.67 1.16,-1.03 2.64,-0.63 0.85,0.22 1.21,0.44 1.2,0.63 l 2.99,0 -1.09,-0.9 c -0.89,-0.73 -1,-1.01 -0.6,-1.42 0.41,-0.41 0.36,-0.62 -0.29,-1.1 -0.75,-0.56 -0.75,-0.63 -0.1,-1 0.76,-0.43 0.95,-1.75 0.3,-2.15 -0.22,-0.14 -0.4,0.04 -0.4,0.39 0,0.85 -1.07,1.22 -1.81,0.61 -0.33,-0.27 -0.59,-0.94 -0.59,-1.48 0,-1.14 1.05,-3.32 1.6,-3.32 0.22,0 0.4,-0.27 0.4,-0.6 0,-0.45 -0.13,-0.63 -0.42,-0.54 z m 13.92,3.3 -0.55,0.84 c -0.38,0.58 -0.66,1.67 -0.63,2.42 0.05,1.5 -0.88,1.96 -1.3,0.64 -0.24,-0.74 -1.27,-1.41 -2.89,-1.86 -0.83,-0.23 -0.85,-0.17 -0.4,1.02 0.26,0.7 0.97,1.52 1.57,1.83 1.57,0.81 1.43,1.75 -0.25,1.75 -0.76,0 -1.81,0.37 -2.41,0.84 l -0.94,0.73 4.15,0 c -0.04,-0.13 0.27,-0.28 1.14,-0.53 1.24,-0.36 1.67,-0.73 1.95,-1.65 0.2,-0.66 0.46,-1.46 0.56,-1.79 l 0,-4.24 z m -1.66,5.45 c 0.3,0.04 0.56,0.22 0.56,0.54 0,0.68 -1.08,1.16 -1.41,0.62 -0.13,-0.21 -0.12,-0.55 0.01,-0.77 0.19,-0.3 0.54,-0.42 0.84,-0.39 z"
       id="center_deco"
       style="fill:#ffffff;fill-opacity:1"
       inkscape:connector-curvature="0" />
    <path
       d="m 493.12,948.77 c -1.23,0 -2.22,0.99 -2.22,2.22 0,1.22 0.99,2.22 2.22,2.22 1.22,0 2.21,-1 2.21,-2.22 0,-1.23 -0.99,-2.22 -2.21,-2.22 z m -0.03,1.14 1.11,1.1 -1.06,1.06 -1.11,-1.11 1.06,-1.05 z"
       id="squa_circ"
       style="fill:#ffffff;fill-opacity:1;fill-rule:evenodd;stroke:none"
       inkscape:connector-curvature="0" />
  </defs>
  <use
     xlink:href="#base"
     x="335.14999"
     y="972.54999"
     id="use3250"
     width="2178.99"
     height="1216.1899"
     transform="translate(-334.09999,-972.25611)" />
  <rect
     style="fill:#204a87;fill-opacity:1;fill-rule:evenodd;stroke:none"
     width="152.74239"
     height="229.22751"
     x="8.0060902"
     y="-228.41483"
     ry="3.5426793"
     rx="3.1738884"
     id="rect3252" />
  <rect
     width="140.52298"
     height="217.76611"
     rx="3.1738877"
     ry="3.5426791"
     x="14.120123"
     y="-222.6797"
     style="fill:#204a87;fill-opacity:1;fill-rule:evenodd;stroke:#ffffff;stroke-width:1.50123394000000010;stroke-linecap:butt;stroke-linejoin:round;stroke-miterlimit:4;stroke-opacity:1"
     id="rect3254" />
  <rect
     width="118.93868"
     height="196.53387"
     rx="0"
     ry="0"
     x="24.913738"
     y="-212.06589"
     style="fill:#204a87;fill-opacity:1;fill-rule:evenodd;stroke:#ffffff;stroke-width:1.25102818000000005;stroke-linecap:butt;stroke-linejoin:round;stroke-miterlimit:4;stroke-opacity:1"
     id="rect3256" />
  <rect
     width="109.42363"
     height="186.70714"
     rx="0"
     ry="0"
     x="29.671383"
     y="-207.1528"
     style="fill:#204a87;fill-opacity:1;fill-rule:evenodd;stroke:#ffffff;stroke-width:1.25102818000000005;stroke-linecap:butt;stroke-linejoin:round;stroke-miterlimit:4;stroke-opacity:1"
     id="rect3258" />
  <g
     id="back_c1"
     transform="translate(-334.09999,-972.25611)">
    <g
       id="back_c2">
      <use
         transform="translate(-120.572,-156.034)"
         xlink:href="#squa_circ"
         id="use3262"
         x="0"
         y="0"
         width="2178.99"
         height="1216.1899" />
      <use
         transform="translate(-113.479,-156.034)"
         xlink:href="#squa_circ"
         id="use3264"
         x="0"
         y="0"
         width="2178.99"
         height="1216.1899" />
      <use
         transform="translate(-106.387,-156.034)"
         xlink:href="#squa_circ"
         id="use3266"
         x="0"
         y="0"
         width="2178.99"
         height="1216.1899" />
    </g>
    <g
       id="back_c3">
      <use
         transform="translate(-113.4792,-163.1263)"
         xlink:href="#squa_circ"
         id="use3269"
         x="0"
         y="0"
         width="2178.99"
         height="1216.1899" />
      <use
         transform="translate(-106.3868,-170.2188)"
         xlink:href="#squa_circ"
         id="use3271"
         x="0"
         y="0"
         width="2178.99"
         height="1216.1899" />
      <use
         transform="translate(-106.3868,-163.1263)"
         xlink:href="#squa_circ"
         id="use3273"
         x="0"
         y="0"
         width="2178.99"
         height="1216.1899" />
    </g>
    <g
       id="back_c4">
      <g
         id="back_c5">
        <use
           transform="translate(-99.2942,-177.311)"
           xlink:href="#squa_circ"
           id="use3277"
           x="0"
           y="0"
           width="2178.99"
           height="1216.1899" />
        <use
           transform="translate(-92.2019,-177.311)"
           xlink:href="#squa_circ"
           id="use3279"
           x="0"
           y="0"
           width="2178.99"
           height="1216.1899" />
        <use
           transform="translate(-85.1094,-177.311)"
           xlink:href="#squa_circ"
           id="use3281"
           x="0"
           y="0"
           width="2178.99"
           height="1216.1899" />
        <use
           transform="translate(-78.017,-177.311)"
           xlink:href="#squa_circ"
           id="use3283"
           x="0"
           y="0"
           width="2178.99"
           height="1216.1899" />
      </g>
      <use
         transform="translate(0,7.0926)"
         xlink:href="#back_c5"
         id="use3285"
         x="0"
         y="0"
         width="2178.99"
         height="1216.1899" />
      <use
         transform="translate(1.4161e-4,14.185)"
         xlink:href="#back_c5"
         id="use3287"
         x="0"
         y="0"
         width="2178.99"
         height="1216.1899" />
      <use
         transform="translate(0,21.2775)"
         xlink:href="#back_c5"
         id="use3289"
         x="0"
         y="0"
         width="2178.99"
         height="1216.1899" />
      <use
         transform="translate(1.4161e-4,28.3699)"
         xlink:href="#back_c5"
         id="use3291"
         x="0"
         y="0"
         width="2178.99"
         height="1216.1899" />
    </g>
    <use
       transform="translate(0,35.4623)"
       xlink:href="#back_c5"
       id="use3293"
       x="0"
       y="0"
       width="2178.99"
       height="1216.1899" />
    <use
       transform="translate(1.4161e-4,42.5548)"
       xlink:href="#back_c5"
       id="use3295"
       x="0"
       y="0"
       width="2178.99"
       height="1216.1899" />
    <use
       transform="translate(0,49.6472)"
       xlink:href="#back_c5"
       id="use3297"
       x="0"
       y="0"
       width="2178.99"
       height="1216.1899" />
    <use
       transform="translate(-21.2773,56.7397)"
       xlink:href="#back_c4"
       id="use3299"
       x="0"
       y="0"
       width="2178.99"
       height="1216.1899" />
    <use
       transform="matrix(-1,0,0,-1,787.641,1618.28)"
       xlink:href="#back_c3"
       id="use3301"
       x="0"
       y="0"
       width="2178.99"
       height="1216.1899" />
    <use
       transform="translate(1.477e-4,7.0926)"
       xlink:href="#back_c2"
       id="use3303"
       x="0"
       y="0"
       width="2178.99"
       height="1216.1899" />
    <use
       transform="translate(0,14.185)"
       xlink:href="#back_c2"
       id="use3305"
       x="0"
       y="0"
       width="2178.99"
       height="1216.1899" />
    <use
       transform="translate(1.477e-4,21.2775)"
       xlink:href="#back_c2"
       id="use3307"
       x="0"
       y="0"
       width="2178.99"
       height="1216.1899" />
    <use
       transform="translate(0,28.3699)"
       xlink:href="#back_c2"
       id="use3309"
       x="0"
       y="0"
       width="2178.99"
       height="1216.1899" />
  </g>
  <use
     transform="matrix(1,0,0,-1,0,-226.93722)"
     xlink:href="#back_c1"
     id="use3313"
     x="0"
     y="0"
     width="2178.99"
     height="1216.1899" />
  <use
     transform="matrix(-1,0,0,1,169.08902,0)"
     xlink:href="#back_c1"
     id="use3315"
     x="0"
     y="0"
     width="2178.99"
     height="1216.1899" />
  <use
     transform="matrix(-1,0,0,-1,169.08902,-226.93722)"
     xlink:href="#back_c1"
     id="use3319"
     x="0"
     y="0"
     width="2178.99"
     height="1216.1899" />
  <use
     xlink:href="#center_deco"
     id="use3321"
     x="0"
     y="0"
     width="2178.99"
     height="1216.1899"
     transform="translate(-334.09999,-972.25611)" />
  <use
     transform="matrix(-1,0,0,1,502.77201,-972.25611)"
     xlink:href="#center_deco"
     id="use3323"
     x="0"
     y="0"
     width="2178.99"
     height="1216.1899" />
  <use
     transform="matrix(1,0,0,-1,-334.09999,744.44389)"
     xlink:href="#center_deco"
     id="use3325"
     x="0"
     y="0"
     width="2178.99"
     height="1216.1899" />
  <use
     transform="matrix(-1,0,0,-1,502.77201,744.44389)"
     xlink:href="#center_deco"
     id="use3327"
     x="0"
     y="0"
     width="2178.99"
     height="1216.1899" />
  <use
     xlink:href="#lys"
     id="use3329"
     x="0"
     y="0"
     width="2178.99"
     height="1216.1899"
     transform="translate(-334.09999,-972.25611)" />
  <use
     transform="matrix(-1,0,0,1,504.06401,-972.25611)"
     xlink:href="#lys"
     id="use3331"
     x="0"
     y="0"
     width="2178.99"
     height="1216.1899" />
  <use
     transform="matrix(1,0,0,-1,-334.09999,744.91889)"
     xlink:href="#lys"
     id="use3333"
     x="0"
     y="0"
     width="2178.99"
     height="1216.1899" />
  <use
     transform="matrix(-1,0,0,-1,504.06401,744.91889)"
     xlink:href="#lys"
     id="use3335"
     x="0"
     y="0"
     width="2178.99"
     height="1216.1899" />
  <use
     transform="matrix(0,-1,1,0,-735.56099,342.90389)"
     xlink:href="#twist"
     id="use3337"
     x="0"
     y="0"
     width="2178.99"
     height="1216.1899" />
  <use
     transform="matrix(-1,0,0,-1,502.86201,744.36489)"
     xlink:href="#twist"
     id="use3339"
     x="0"
     y="0"
     width="2178.99"
     height="1216.1899" />
  <use
     transform="matrix(0,1,-1,0,904.32301,-570.79511)"
     xlink:href="#twist"
     id="use3341"
     x="0"
     y="0"
     width="2178.99"
     height="1216.1899" />
  <use
     xlink:href="#twist"
     id="use3343"
     x="0"
     y="0"
     width="2178.99"
     height="1216.1899"
     transform="translate(-334.09999,-972.25611)" />
  <g
     id="g_lace"
     transform="translate(-334.09999,-972.25611)">
    <use
       xlink:href="#lace"
       id="use3346"
       x="0"
       y="0"
       width="2178.99"
       height="1216.1899" />
    <use
       transform="translate(0,27.18114)"
       xlink:href="#lace"
       id="use3348"
       x="0"
       y="0"
       width="2178.99"
       height="1216.1899" />
    <use
       transform="translate(0,54.37214)"
       xlink:href="#lace"
       id="use3350"
       x="0"
       y="0"
       width="2178.99"
       height="1216.1899" />
    <use
       transform="translate(0,81.5631)"
       xlink:href="#lace"
       id="use3352"
       x="0"
       y="0"
       width="2178.99"
       height="1216.1899" />
    <use
       transform="translate(0,108.7443)"
       xlink:href="#lace"
       id="use3354"
       x="0"
       y="0"
       width="2178.99"
       height="1216.1899" />
    <use
       transform="translate(0,135.9353)"
       xlink:href="#lace"
       id="use3356"
       x="0"
       y="0"
       width="2178.99"
       height="1216.1899" />
    <use
       transform="translate(0,163.1262)"
       xlink:href="#lace"
       id="use3358"
       x="0"
       y="0"
       width="2178.99"
       height="1216.1899" />
  </g>
  <use
     transform="translate(129.5877,-0.313128)"
     xlink:href="#g_lace"
     id="use3360"
     x="0"
     y="0"
     width="2178.99"
     height="1216.1899" />
  <g
     transform="translate(-479.26929,-1031.9192)"
     id="g_lace2">
    <use
       transform="matrix(0,-1,1,0,-254.1121,1167.993)"
       xlink:href="#lace"
       id="use3363"
       x="0"
       y="0"
       width="2178.99"
       height="1216.1899" />
    <use
       transform="matrix(0,-1,1,0,-226.9211,1167.993)"
       xlink:href="#lace"
       id="use3365"
       x="0"
       y="0"
       width="2178.99"
       height="1216.1899" />
    <use
       transform="matrix(0,-1,1,0,-199.7301,1167.993)"
       xlink:href="#lace"
       id="use3367"
       x="0"
       y="0"
       width="2178.99"
       height="1216.1899" />
    <use
       transform="matrix(0,-1,1,0,-172.5489,1167.993)"
       xlink:href="#lace"
       id="use3369"
       x="0"
       y="0"
       width="2178.99"
       height="1216.1899" />
  </g>
  <use
     transform="translate(0,207.189)"
     xlink:href="#g_lace2"
     id="use3371"
     x="0"
     y="0"
     width="2178.99"
     height="1216.1899" />
</svg>
