<?xml version="1.0" encoding="UTF-8" standalone="no"?>
<svg
   xmlns:dc="http://purl.org/dc/elements/1.1/"
   xmlns:cc="http://creativecommons.org/ns#"
   xmlns:rdf="http://www.w3.org/1999/02/22-rdf-syntax-ns#"
   xmlns:svg="http://www.w3.org/2000/svg"
   xmlns="http://www.w3.org/2000/svg"
   xmlns:xlink="http://www.w3.org/1999/xlink"
   xmlns:sodipodi="http://sodipodi.sourceforge.net/DTD/sodipodi-0.dtd"
   xmlns:inkscape="http://www.inkscape.org/namespaces/inkscape"
   version="1.1"
   height="244.54906"
   width="169.01215"
   viewBox="-0.2 -236 169.075 244.54907"
   id="svg2"
   inkscape:version="0.48.2 r9819"
   sodipodi:docname="card_5c.svg">
  <metadata
     id="metadata3375">
    <rdf:RDF>
      <cc:Work
         rdf:about="">
        <dc:format>image/svg+xml</dc:format>
        <dc:type
           rdf:resource="http://purl.org/dc/dcmitype/StillImage" />
        <dc:title />
      </cc:Work>
    </rdf:RDF>
  </metadata>
  <sodipodi:namedview
     pagecolor="#ffffff"
     bordercolor="#666666"
     borderopacity="1"
     objecttolerance="10"
     gridtolerance="10"
     guidetolerance="10"
     inkscape:pageopacity="0"
     inkscape:pageshadow="2"
     inkscape:window-width="1362"
     inkscape:window-height="724"
     id="namedview3373"
     showgrid="false"
     inkscape:zoom="0.45634319"
     inkscape:cx="-834.72601"
     inkscape:cy="-481.72587"
     inkscape:window-x="4"
     inkscape:window-y="0"
     inkscape:window-maximized="1"
     inkscape:current-layer="svg2"
     fit-margin-top="0"
     fit-margin-left="0"
     fit-margin-right="0"
     fit-margin-bottom="0" />
  <!-- SVG-cards 2.0.1								-->
  <!-- This set of SVG files is a complete cards game with figures, numbers	-->
  <!--	and backs of cards completely designed in SVG.				-->
  <!--										-->
  <!--	Copyright (C) 2005 David Bellot						-->
  <!--										-->
  <!--	This library is free software; you can redistribute it and/or		-->
  <!--	modify it under the terms of the GNU Lesser General Public		-->
  <!--	License as published by the Free Software Foundation; either		-->
  <!--	version 2 of the License, or (at your option) any later version		-->
  <!--										-->
  <!--	This library is distributed in the hope that it will be useful,		-->
  <!--	but WITHOUT ANY WARRANTY; without even the implied warranty of		-->
  <!--	MERCHANTABILITY or FITNESS FOR A PARTICULAR PURPOSE.  See the GNU	-->
  <!--	Lesser General Public License for more details.				-->
  <!--										-->
  <!--	You should have received a copy of the GNU Lesser General Public	-->
  <!--	License along with this library; if not, write to the Free Software	-->
  <!--	Foundation, Inc., 59 Temple Place, Suite 330, Boston, MA 02111-1307  USA-->
  <!--                                                                            -->
  <!--	Contact the author David Bellot at david.bellot@free.fr			-->
  <defs
     id="defs4">
    <g
       id="n_5">
      <text
         transform="scale(0.56453,1.05741)"
         font-weight="bold"
         font-size="43"
         id="text22"
         style="font-size:43px;font-weight:bold;font-family:Bitstream Vera Serif">5</text>
    </g>
    <g
       id="base">
      <path
         style="fill:#ffffff;stroke:#000000;stroke-width:2.5"
         d="m 0,0 c 0,3.78 3.09,6.87 6.87,6.87 l 152.845,0 c 3.77,0 6.86,-3.09 6.86,-6.87 l 0,-228.4 c 0,-3.78 -3.09,-6.87 -6.86,-6.87 l -152.845,0 c -3.78,0 -6.87,3.09 -6.87,6.87 L 0,0 z"
         id="path49"
         inkscape:connector-curvature="0" />
    </g>
    <g
       id="club">
      <path
         d="m 3.35,4.66 c 0,-1.81 -1.51,-3.28 -3.38,-3.28 -1.87,0 -3.38,1.47 -3.38,3.28 0,1.81 1.51,3.28 3.38,3.28 1.87,0 3.38,-1.47 3.38,-3.28 z"
         id="path52"
         inkscape:connector-curvature="0" />
      <path
         d="m 7.71,-1.55 c 0,-1.81 -1.51,-3.28 -3.38,-3.28 -1.87,0 -3.38,1.47 -3.38,3.28 0,1.81 1.51,3.28 3.38,3.28 1.87,0 3.38,-1.47 3.38,-3.28 z"
         id="path54"
         inkscape:connector-curvature="0" />
      <path
         d="m -0.95,-1.57 c 0,-0.66 -0.2,-1.28 -0.55,-1.8 -0.6,-0.89 -1.65,-1.48 -2.83,-1.48 -1.87,0 -3.38,1.47 -3.38,3.28 0,1.81 1.51,3.28 3.38,3.28 1.87,0 3.38,-1.47 3.38,-3.28 z"
         id="path56"
         inkscape:connector-curvature="0" />
      <path
         d="m 3.94,-7.94 c -1.67,0 -2.55,1.36 -3.01,2.72 -0.46,1.36 -0.5,2.72 -0.5,2.72 h -0.86 c 0,0 -0.16,-5.43 -3.5,-5.44 h 7.87 z"
         id="path58"
         inkscape:connector-curvature="0" />
      <path
         d="m -2.32,2.25 c 1.9,-1.9 1.9,-4.75 1.9,-4.75 l 0.85,-0.01 c 0,0 0,2.91 1.85,4.76"
         id="path60"
         inkscape:connector-curvature="0" />
      <path
         d="m -1.94,-3.85 c 1.9,1.9 4.75,1.9 4.75,1.9 v 0.85 c 0,0 -2.91,0 -4.76,1.85"
         id="path62"
         inkscape:connector-curvature="0" />
      <path
         d="m 1.87,-3.86 c -1.9,1.9 -4.75,1.9 -4.75,1.9 v 0.85 c 0,0 2.91,0 4.76,1.85"
         id="path64"
         inkscape:connector-curvature="0" />
    </g>
    <g
       transform="matrix(0.4,0,0,0.4,236.59,667.12)"
       id="lys"
       style="fill:#ffffff;fill-opacity:1;stroke:none">
      <path
         d="m 355.65,280.19 c 0,0 -3.75,-8.1 -8.1,-12.6 -4.36,-4.51 -9.68,-7.58 -11.04,-6.53"
         transform="translate(-1.35,-0.76)"
         style="fill:#ffffff;fill-opacity:1;fill-rule:evenodd;stroke:none"
         id="lys_1"
         inkscape:connector-curvature="0" />
      <path
         d="m 368.97,258.94 c -2.29,0.08 -5.9,1.92 -7.85,3.87 -2.59,2.6 -3.52,7.58 -3.59,9.44 -0.07,1.86 -1.32,-0.84 -2.19,-2.37 -0.86,-1.54 -1.93,-5.4 -2.22,-3.22 -0.28,2.2 -0.34,3.26 0.07,5.72 0.4,2.45 1.59,7.15 2.56,8.68 l 3.97,3.94 c 1.87,-1.88 3.1,-6.25 3.19,-6.25 l -0.07,9.34 4.35,4.32 c -1.16,-2.37 -1.94,-6.58 -1.63,-10.38 0.32,-3.8 2.3,-8.59 2.06,-10.44 -1.14,-0.4 -2.9,2.58 -5.21,1.88 -0.08,-1.75 0.74,-6.02 1.9,-7.69 1.17,-1.66 4.43,-5.7 6.41,-6.28 -0.36,-0.42 -0.99,-0.59 -1.75,-0.56 z"
         style="fill:#ffffff;fill-opacity:1;fill-rule:evenodd;stroke:none"
         id="lys_2"
         inkscape:connector-curvature="0" />
      <path
         d="m 329.36,254.28 c 9.62,-4.95 19.64,8.3 19.64,8.3 0,0 1.44,-9.25 3.32,-9.36 1.88,-0.11 4.87,7.31 4.87,7.31 0,0 5.76,-7.64 15.72,-7.58 9.97,0.05 11.57,9.13 5.87,9.57 -5.66,0.44 -2.38,-5.15 -2.27,-3.65 0.06,0.17 -5.37,-7.75 -19.15,7.86 -2.03,2.3 -3.94,-8.46 -4.93,-6.09 -1.21,2.88 -0.22,6.26 -1.11,8.53 1.39,1.71 -11.35,-13.84 -16.77,-9.58"
         transform="translate(-1.35,-0.76)"
         style="fill:#ffffff;fill-opacity:1;fill-rule:evenodd;stroke:none"
         id="lys_3"
         inkscape:connector-curvature="0" />
      <use
         transform="matrix(0,1,1,0,74.5,-74.49)"
         xlink:href="#lys_3"
         style="fill:#ffffff;fill-opacity:1;stroke:none"
         id="use646"
         x="0"
         y="0"
         width="2178.99"
         height="1216.1899" />
      <use
         transform="matrix(0,1,1,0,74.9,-74.93)"
         xlink:href="#lys_1"
         style="fill:#ffffff;fill-opacity:1;stroke:none"
         id="use648"
         x="0"
         y="0"
         width="2178.99"
         height="1216.1899" />
      <use
         transform="matrix(0,1,1,0,74.82,-74.82)"
         xlink:href="#lys_2"
         style="fill:#ffffff;fill-opacity:1;stroke:none"
         id="use650"
         x="0"
         y="0"
         width="2178.99"
         height="1216.1899" />
    </g>
  </defs>
  <g
     id="5_club"
     transform="translate(-669.24999,0.29387787)">
    <use
       height="1216.1899"
       width="2178.99"
       id="use728"
       y="0"
       x="670.29999"
       xlink:href="#base" />
    <use
       height="1216.1899"
       width="2178.99"
       id="use730"
       y="-199.117"
       x="674.29999"
       xlink:href="#n_5" />
    <use
       height="1216.1899"
       width="2178.99"
       id="use732"
       transform="matrix(-1,0,0,-1,1667.75,-60.56)"
       y="-30.280001"
       x="833.875"
       xlink:href="#n_5" />
    <use
       height="1216.1899"
       width="2178.99"
       id="use734"
       transform="matrix(-1,0,0,-1,1367.9,-370.234)"
       y="-185.117"
       x="683.95001"
       xlink:href="#club" />
    <use
       height="1216.1899"
       width="2178.99"
       id="use736"
       y="-44.279999"
       x="824.22498"
       xlink:href="#club" />
    <use
       height="1216.1899"
       width="2178.99"
       id="use738"
       transform="matrix(-2.4,0,0,-2.4,1428.3168,-397.02)"
       y="-82.712502"
       x="297.56601"
       xlink:href="#club" />
    <use
       height="1216.1899"
       width="2178.99"
       id="use740"
       transform="scale(2.4,2.4)"
       y="-14.599"
       x="297.56601"
       xlink:href="#club" />
    <use
       height="1216.1899"
       width="2178.99"
       id="use742"
       transform="matrix(-2.4,0,0,-2.4,1588.032,-397.02)"
       y="-82.712502"
       x="330.84"
       xlink:href="#club" />
    <use
       height="1216.1899"
       width="2178.99"
       id="use744"
       transform="scale(2.4,2.4)"
       y="-14.599"
       x="330.84"
       xlink:href="#club" />
    <use
       height="1216.1899"
       width="2178.99"
       id="use746"
       transform="matrix(-2.4,0,0,-2.4,1508.1744,-243.13728)"
       y="-50.653599"
       x="314.203"
       xlink:href="#club" />
  </g>
</svg>
