<?xml version="1.0" encoding="UTF-8" standalone="no"?>
<svg
   xmlns:dc="http://purl.org/dc/elements/1.1/"
   xmlns:cc="http://creativecommons.org/ns#"
   xmlns:rdf="http://www.w3.org/1999/02/22-rdf-syntax-ns#"
   xmlns:svg="http://www.w3.org/2000/svg"
   xmlns="http://www.w3.org/2000/svg"
   xmlns:xlink="http://www.w3.org/1999/xlink"
   xmlns:sodipodi="http://sodipodi.sourceforge.net/DTD/sodipodi-0.dtd"
   xmlns:inkscape="http://www.inkscape.org/namespaces/inkscape"
   version="1.1"
   height="244.54906"
   width="169.01215"
   viewBox="-0.2 -236 169.075 244.54907"
   id="svg2"
   inkscape:version="0.48.2 r9819"
   sodipodi:docname="card_7s.svg">
  <metadata
     id="metadata3375">
    <rdf:RDF>
      <cc:Work
         rdf:about="">
        <dc:format>image/svg+xml</dc:format>
        <dc:type
           rdf:resource="http://purl.org/dc/dcmitype/StillImage" />
        <dc:title />
      </cc:Work>
    </rdf:RDF>
  </metadata>
  <sodipodi:namedview
     pagecolor="#ffffff"
     bordercolor="#666666"
     borderopacity="1"
     objecttolerance="10"
     gridtolerance="10"
     guidetolerance="10"
     inkscape:pageopacity="0"
     inkscape:pageshadow="2"
     inkscape:window-width="1362"
     inkscape:window-height="724"
     id="namedview3373"
     showgrid="false"
     inkscape:zoom="0.45634319"
     inkscape:cx="-1263.252"
     inkscape:cy="-49.031451"
     inkscape:window-x="4"
     inkscape:window-y="0"
     inkscape:window-maximized="1"
     inkscape:current-layer="svg2"
     fit-margin-top="0"
     fit-margin-left="0"
     fit-margin-right="0"
     fit-margin-bottom="0" />
  <!-- SVG-cards 2.0.1								-->
  <!-- This set of SVG files is a complete cards game with figures, numbers	-->
  <!--	and backs of cards completely designed in SVG.				-->
  <!--										-->
  <!--	Copyright (C) 2005 David Bellot						-->
  <!--										-->
  <!--	This library is free software; you can redistribute it and/or		-->
  <!--	modify it under the terms of the GNU Lesser General Public		-->
  <!--	License as published by the Free Software Foundation; either		-->
  <!--	version 2 of the License, or (at your option) any later version		-->
  <!--										-->
  <!--	This library is distributed in the hope that it will be useful,		-->
  <!--	but WITHOUT ANY WARRANTY; without even the implied warranty of		-->
  <!--	MERCHANTABILITY or FITNESS FOR A PARTICULAR PURPOSE.  See the GNU	-->
  <!--	Lesser General Public License for more details.				-->
  <!--										-->
  <!--	You should have received a copy of the GNU Lesser General Public	-->
  <!--	License along with this library; if not, write to the Free Software	-->
  <!--	Foundation, Inc., 59 Temple Place, Suite 330, Boston, MA 02111-1307  USA-->
  <!--                                                                            -->
  <!--	Contact the author David Bellot at david.bellot@free.fr			-->
  <defs
     id="defs4">
    <g
       id="n_7">
      <text
         transform="scale(0.56453,1.05741)"
         font-weight="bold"
         font-size="43"
         id="text28"
         style="font-size:43px;font-weight:bold;font-family:Bitstream Vera Serif">7</text>
    </g>
    <g
       id="base">
      <path
         style="fill:#ffffff;stroke:#000000;stroke-width:2.5"
         d="m 0,0 c 0,3.78 3.09,6.87 6.87,6.87 l 152.845,0 c 3.77,0 6.86,-3.09 6.86,-6.87 l 0,-228.4 c 0,-3.78 -3.09,-6.87 -6.86,-6.87 l -152.845,0 c -3.78,0 -6.87,3.09 -6.87,6.87 L 0,0 z"
         id="path49"
         inkscape:connector-curvature="0" />
    </g>
    <g
       id="spade">
      <path
         d="m 3.92,-7.93 c -1.67,0 -2.55,1.78 -3.01,3.56 -0.46,1.78 -0.5,3.56 -0.5,3.56 l -0.85,0.01 c 0,0 -0.16,-7.13 -3.5,-7.13 h 7.86 z"
         id="path73"
         inkscape:connector-curvature="0" />
      <path
         d="M 6.75,-0.8 C 6.74,2.67 1.53,5.19 0,7.93 -1.53,5.18 -6.74,2.66 -6.75,-0.8 c 0,-1.64 1.51,-2.97 3.38,-2.97 1.86,0 3.37,1.33 3.37,2.97 0,-1.64 1.51,-2.97 3.38,-2.97 1.87,0 3.37,1.33 3.37,2.97 z"
         id="path75"
         inkscape:connector-curvature="0" />
    </g>
    <g
       transform="matrix(0.4,0,0,0.4,236.59,667.12)"
       id="lys"
       style="fill:#ffffff;fill-opacity:1;stroke:none">
      <path
         d="m 355.65,280.19 c 0,0 -3.75,-8.1 -8.1,-12.6 -4.36,-4.51 -9.68,-7.58 -11.04,-6.53"
         transform="translate(-1.35,-0.76)"
         style="fill:#ffffff;fill-opacity:1;fill-rule:evenodd;stroke:none"
         id="lys_1"
         inkscape:connector-curvature="0" />
      <path
         d="m 368.97,258.94 c -2.29,0.08 -5.9,1.92 -7.85,3.87 -2.59,2.6 -3.52,7.58 -3.59,9.44 -0.07,1.86 -1.32,-0.84 -2.19,-2.37 -0.86,-1.54 -1.93,-5.4 -2.22,-3.22 -0.28,2.2 -0.34,3.26 0.07,5.72 0.4,2.45 1.59,7.15 2.56,8.68 l 3.97,3.94 c 1.87,-1.88 3.1,-6.25 3.19,-6.25 l -0.07,9.34 4.35,4.32 c -1.16,-2.37 -1.94,-6.58 -1.63,-10.38 0.32,-3.8 2.3,-8.59 2.06,-10.44 -1.14,-0.4 -2.9,2.58 -5.21,1.88 -0.08,-1.75 0.74,-6.02 1.9,-7.69 1.17,-1.66 4.43,-5.7 6.41,-6.28 -0.36,-0.42 -0.99,-0.59 -1.75,-0.56 z"
         style="fill:#ffffff;fill-opacity:1;fill-rule:evenodd;stroke:none"
         id="lys_2"
         inkscape:connector-curvature="0" />
      <path
         d="m 329.36,254.28 c 9.62,-4.95 19.64,8.3 19.64,8.3 0,0 1.44,-9.25 3.32,-9.36 1.88,-0.11 4.87,7.31 4.87,7.31 0,0 5.76,-7.64 15.72,-7.58 9.97,0.05 11.57,9.13 5.87,9.57 -5.66,0.44 -2.38,-5.15 -2.27,-3.65 0.06,0.17 -5.37,-7.75 -19.15,7.86 -2.03,2.3 -3.94,-8.46 -4.93,-6.09 -1.21,2.88 -0.22,6.26 -1.11,8.53 1.39,1.71 -11.35,-13.84 -16.77,-9.58"
         transform="translate(-1.35,-0.76)"
         style="fill:#ffffff;fill-opacity:1;fill-rule:evenodd;stroke:none"
         id="lys_3"
         inkscape:connector-curvature="0" />
      <use
         transform="matrix(0,1,1,0,74.5,-74.49)"
         xlink:href="#lys_3"
         style="fill:#ffffff;fill-opacity:1;stroke:none"
         id="use646"
         x="0"
         y="0"
         width="2178.99"
         height="1216.1899" />
      <use
         transform="matrix(0,1,1,0,74.9,-74.93)"
         xlink:href="#lys_1"
         style="fill:#ffffff;fill-opacity:1;stroke:none"
         id="use648"
         x="0"
         y="0"
         width="2178.99"
         height="1216.1899" />
      <use
         transform="matrix(0,1,1,0,74.82,-74.82)"
         xlink:href="#lys_2"
         style="fill:#ffffff;fill-opacity:1;stroke:none"
         id="use650"
         x="0"
         y="0"
         width="2178.99"
         height="1216.1899" />
    </g>
  </defs>
  <g
     id="7_spade"
     transform="translate(-1004.4,-729.11811)">
    <use
       height="1216.1899"
       width="2178.99"
       id="use2683"
       y="729.41199"
       x="1005.45"
       xlink:href="#base" />
    <use
       height="1216.1899"
       width="2178.99"
       id="use2685"
       y="530.29498"
       x="1009.45"
       xlink:href="#n_7" />
    <use
       height="1216.1899"
       width="2178.99"
       id="use2687"
       transform="matrix(-1,0,0,-1,2338.04,1398.264)"
       y="699.13202"
       x="1169.02"
       xlink:href="#n_7" />
    <use
       height="1216.1899"
       width="2178.99"
       id="use2689"
       transform="matrix(-1,0,0,-1,2038.2,1088.59)"
       y="544.29498"
       x="1019.1"
       xlink:href="#spade" />
    <use
       height="1216.1899"
       width="2178.99"
       id="use2691"
       y="685.13202"
       x="1159.37"
       xlink:href="#spade" />
    <use
       height="1216.1899"
       width="2178.99"
       id="use2693"
       transform="matrix(-2.4,0,0,-2.4,2098.6176,1061.8032)"
       y="221.209"
       x="437.21201"
       xlink:href="#spade" />
    <use
       height="1216.1899"
       width="2178.99"
       id="use2695"
       transform="matrix(-2.4,0,0,-2.4,2098.6176,1215.6864)"
       y="253.26801"
       x="437.21201"
       xlink:href="#spade" />
    <use
       height="1216.1899"
       width="2178.99"
       id="use2697"
       transform="scale(2.4,2.4)"
       y="289.323"
       x="437.21201"
       xlink:href="#spade" />
    <use
       height="1216.1899"
       width="2178.99"
       id="use2699"
       transform="matrix(-2.4,0,0,-2.4,2258.3328,1061.8032)"
       y="221.209"
       x="470.48599"
       xlink:href="#spade" />
    <use
       height="1216.1899"
       width="2178.99"
       id="use2701"
       transform="matrix(-2.4,0,0,-2.4,2258.3328,1215.6864)"
       y="253.26801"
       x="470.48599"
       xlink:href="#spade" />
    <use
       height="1216.1899"
       width="2178.99"
       id="use2703"
       transform="scale(2.4,2.4)"
       y="289.323"
       x="470.48599"
       xlink:href="#spade" />
    <use
       height="1216.1899"
       width="2178.99"
       id="use2705"
       transform="matrix(-2.4,0,0,-2.4,2178.4752,1170.1152)"
       y="243.774"
       x="453.849"
       xlink:href="#spade" />
  </g>
</svg>
