<?xml version="1.0" encoding="UTF-8" standalone="no"?>
<svg
   xmlns:dc="http://purl.org/dc/elements/1.1/"
   xmlns:cc="http://creativecommons.org/ns#"
   xmlns:rdf="http://www.w3.org/1999/02/22-rdf-syntax-ns#"
   xmlns:svg="http://www.w3.org/2000/svg"
   xmlns="http://www.w3.org/2000/svg"
   xmlns:xlink="http://www.w3.org/1999/xlink"
   xmlns:sodipodi="http://sodipodi.sourceforge.net/DTD/sodipodi-0.dtd"
   xmlns:inkscape="http://www.inkscape.org/namespaces/inkscape"
   version="1.1"
   height="244.54906"
   width="169.01215"
   viewBox="-0.2 -236 169.075 244.54907"
   id="svg2"
   inkscape:version="0.48.2 r9819"
   sodipodi:docname="joker_black.svg">
  <metadata
     id="metadata3375">
    <rdf:RDF>
      <cc:Work
         rdf:about="">
        <dc:format>image/svg+xml</dc:format>
        <dc:type
           rdf:resource="http://purl.org/dc/dcmitype/StillImage" />
        <dc:title />
      </cc:Work>
    </rdf:RDF>
  </metadata>
  <sodipodi:namedview
     pagecolor="#ffffff"
     bordercolor="#666666"
     borderopacity="1"
     objecttolerance="10"
     gridtolerance="10"
     guidetolerance="10"
     inkscape:pageopacity="0"
     inkscape:pageshadow="2"
     inkscape:window-width="1362"
     inkscape:window-height="724"
     id="namedview3373"
     showgrid="false"
     inkscape:zoom="1.1382382"
     inkscape:cx="-297.02423"
     inkscape:cy="81.339979"
     inkscape:window-x="4"
     inkscape:window-y="0"
     inkscape:window-maximized="1"
     inkscape:current-layer="svg2"
     fit-margin-top="0"
     fit-margin-left="0"
     fit-margin-right="0"
     fit-margin-bottom="0" />
  <!-- SVG-cards 2.0.1								-->
  <!-- This set of SVG files is a complete cards game with figures, numbers	-->
  <!--	and backs of cards completely designed in SVG.				-->
  <!--										-->
  <!--	Copyright (C) 2005 David Bellot						-->
  <!--										-->
  <!--	This library is free software; you can redistribute it and/or		-->
  <!--	modify it under the terms of the GNU Lesser General Public		-->
  <!--	License as published by the Free Software Foundation; either		-->
  <!--	version 2 of the License, or (at your option) any later version		-->
  <!--										-->
  <!--	This library is distributed in the hope that it will be useful,		-->
  <!--	but WITHOUT ANY WARRANTY; without even the implied warranty of		-->
  <!--	MERCHANTABILITY or FITNESS FOR A PARTICULAR PURPOSE.  See the GNU	-->
  <!--	Lesser General Public License for more details.				-->
  <!--										-->
  <!--	You should have received a copy of the GNU Lesser General Public	-->
  <!--	License along with this library; if not, write to the Free Software	-->
  <!--	Foundation, Inc., 59 Temple Place, Suite 330, Boston, MA 02111-1307  USA-->
  <!--                                                                            -->
  <!--	Contact the author David Bellot at david.bellot@free.fr			-->
  <defs
     id="defs4">
    <g
       id="base">
      <path
         style="fill:#ffffff;stroke:#000000;stroke-width:2.5"
         d="m 0,0 c 0,3.78 3.09,6.87 6.87,6.87 l 152.845,0 c 3.77,0 6.86,-3.09 6.86,-6.87 l 0,-228.4 c 0,-3.78 -3.09,-6.87 -6.86,-6.87 l -152.845,0 c -3.78,0 -6.87,3.09 -6.87,6.87 L 0,0 z"
         id="path49"
         inkscape:connector-curvature="0" />
    </g>
    <g
       id="club">
      <path
         d="m 3.35,4.66 c 0,-1.81 -1.51,-3.28 -3.38,-3.28 -1.87,0 -3.38,1.47 -3.38,3.28 0,1.81 1.51,3.28 3.38,3.28 1.87,0 3.38,-1.47 3.38,-3.28 z"
         id="path52"
         inkscape:connector-curvature="0" />
      <path
         d="m 7.71,-1.55 c 0,-1.81 -1.51,-3.28 -3.38,-3.28 -1.87,0 -3.38,1.47 -3.38,3.28 0,1.81 1.51,3.28 3.38,3.28 1.87,0 3.38,-1.47 3.38,-3.28 z"
         id="path54"
         inkscape:connector-curvature="0" />
      <path
         d="m -0.95,-1.57 c 0,-0.66 -0.2,-1.28 -0.55,-1.8 -0.6,-0.89 -1.65,-1.48 -2.83,-1.48 -1.87,0 -3.38,1.47 -3.38,3.28 0,1.81 1.51,3.28 3.38,3.28 1.87,0 3.38,-1.47 3.38,-3.28 z"
         id="path56"
         inkscape:connector-curvature="0" />
      <path
         d="m 3.94,-7.94 c -1.67,0 -2.55,1.36 -3.01,2.72 -0.46,1.36 -0.5,2.72 -0.5,2.72 h -0.86 c 0,0 -0.16,-5.43 -3.5,-5.44 h 7.87 z"
         id="path58"
         inkscape:connector-curvature="0" />
      <path
         d="m -2.32,2.25 c 1.9,-1.9 1.9,-4.75 1.9,-4.75 l 0.85,-0.01 c 0,0 0,2.91 1.85,4.76"
         id="path60"
         inkscape:connector-curvature="0" />
      <path
         d="m -1.94,-3.85 c 1.9,1.9 4.75,1.9 4.75,1.9 v 0.85 c 0,0 -2.91,0 -4.76,1.85"
         id="path62"
         inkscape:connector-curvature="0" />
      <path
         d="m 1.87,-3.86 c -1.9,1.9 -4.75,1.9 -4.75,1.9 v 0.85 c 0,0 2.91,0 4.76,1.85"
         id="path64"
         inkscape:connector-curvature="0" />
    </g>
    <g
       id="diamond">
      <path
         style="fill:#e6180a"
         d="m 0,0 c -2.56,0 -5.12,0 -7.68,0 0.8747,0.039 1.619,0.605 2.322,1.0728 C -3.779,2.264 -2.3,3.63 -1.132,5.228 -0.587,6.032 -0.0144,6.936 0,7.94 M -7.68,0 c 1.11,-0.035 2.058,-0.7413 2.904,-1.393 1.495,-1.255 2.789,-2.748 3.881,-4.364 C -0.494,-6.426 -0.022,-7.135 0,-7.94 0,-5.293 0,-2.647 0,0 m 0,-7.94 c 0.038,1.182 0.758,2.206 1.438,3.12 1.212,1.51 2.648,2.846 4.228,3.963 C 6.28,-0.474 6.932,-0.0185 7.68,0 5.12,0 2.56,0 0,0 M 7.68,0 C 6.57,0.035 5.622,0.741 4.776,1.392 3.281,2.648 1.987,4.141 0.895,5.757 0.494,6.426 0.0225,7.135 0,7.94 0,5.293 0,2.647 0,0"
         id="path67"
         inkscape:connector-curvature="0" />
    </g>
    <g
       id="heart">
      <path
         style="fill:#e6180a"
         d="m -7.67,3.93 c 0.01,-4.71 5.91,-8.14 7.64,-11.87 1.75,3.72 7.66,7.12 7.7,11.83 C 7.68,6.11 5.96,7.92 3.85,7.92 1.73,7.92 0,6.13 0,3.91 0,6.14 -1.71,7.94 -3.82,7.94 -5.94,7.95 -7.66,6.15 -7.67,3.93 z"
         id="path70"
         inkscape:connector-curvature="0" />
    </g>
    <g
       id="spade">
      <path
         d="m 3.92,-7.93 c -1.67,0 -2.55,1.78 -3.01,3.56 -0.46,1.78 -0.5,3.56 -0.5,3.56 l -0.85,0.01 c 0,0 -0.16,-7.13 -3.5,-7.13 h 7.86 z"
         id="path73"
         inkscape:connector-curvature="0" />
      <path
         d="M 6.75,-0.8 C 6.74,2.67 1.53,5.19 0,7.93 -1.53,5.18 -6.74,2.66 -6.75,-0.8 c 0,-1.64 1.51,-2.97 3.38,-2.97 1.86,0 3.37,1.33 3.37,2.97 0,-1.64 1.51,-2.97 3.38,-2.97 1.87,0 3.37,1.33 3.37,2.97 z"
         id="path75"
         inkscape:connector-curvature="0" />
    </g>
    <g
       id="joker"
       transform="translate(-1094.1,-924.2)">
      <path
         style="fill:#e6180a"
         d="m 341.26,836.91 -3.69,7.13 3.81,24.8 9.93,-1.72 19.68,-13.32 -21.88,-20.82"
         transform="translate(-924.12,211.4)"
         id="path576"
         inkscape:connector-curvature="0" />
      <path
         style="fill:#e6180a"
         d="m 416.53,178.87 c 1.38,0.52 -31.61,31.62 -35.76,31.62 l -27.99,15.55 -16.67,24.62 -12.53,27.73 -0.77,30.75 11.66,16.58 24.79,5.1 31.01,-5.44 33.98,-21.62 17.22,-22.31 6.51,-21.79 -2.3,-14.53 -15.43,-7.45 -13.18,-1.23 -0.92,-5.55 2.37,-13.33 -11.29,-9 -20.61,1.36 33.46,-30.26 34.67,8.79 16.36,-2.96 46.59,57.17 -24.93,34.35 -3.85,14.84 5.18,20.9 7.78,21.43 -3.81,23.15 -5.87,8.29 0.69,18.31 -3.63,9.33 -12.61,5.36 -11.75,-5.01 -7.25,-12.61 3.63,-14.69 9.84,-5.53 8.81,-0.17 1.56,-2.59 -6.91,-17.8 -15.72,-11.57 -12.79,-0.69 -31.09,21.07 -3.46,18.15 -0.34,30.4 30.06,19.87 13.64,21.94 4.32,25.57 3.46,31.79 28.5,70.83 10.02,17.97 -3.8,3.11 -23.32,-10.89 -21.08,-21.77 -1.21,-16.58 3.98,-12.96 -5.53,-9.67 -9.33,0.17 -5.87,9.33 0.86,7.6 7.6,12.44 -3.45,19.18 -13.82,25.57 -7.26,0.17 -14.34,-20.39 -7.95,-27.12 7.43,-17.62 -0.17,-7.09 -12.61,-10.19 -9.68,3.11 -7.08,10.88 7.26,23.67 -7.78,14 -29.2,24.7 -5.35,-3.11 -6.74,-17.62 -1.73,-26.26 15.9,-12.44 1.21,-13.82 -8.99,-7.77 -9.84,1.55 -9.85,7.08 -0.69,12.96 0.17,15.55 -19.52,25.05 -21.6,16.41 -8.98,-2.42 -3.8,-11.4 -0.69,-47.68 19,-10.02 5.53,-10.88 -6.05,-9.68 -12.44,-3.8 -10.88,6.91 -4.84,11.4 3.63,15.55 -7.95,8.81 -11.74,9.85 -30.58,14.51 -13.48,2.07 0.17,-19.69 10.71,-34.03 8.99,-12.96 20.38,-6.05 6.57,-12.61 -3.63,-9.85 -13.13,-5.87 -11.92,6.74 -4.15,7.94 -2.24,11.75 -16.24,11.23 -42.33,12.96 -6.04,-5.7 12.61,-36.46 16.58,-16.41 19.52,-2.76 7.95,-13.65 -3.8,-12.96 -11.75,-5.18 -11.05,5.35 -8.81,19.35 -16.42,10.72 -39.56,7.25 4.49,-17.27 9.5,-17.63 6.74,-5.87 11.06,-12.27 18.14,-1.55 7.25,-7.6 2.42,-6.74 -0.86,-6.91 -9.85,-6.39 -16.24,4.83 -8.46,0.52 -16.07,-15.55 -6.05,-10.02 3.8,-1.9 20.91,0.52 24.01,-6.39 47.17,-21.77 20.56,-3.97 20.9,4.32 15.89,9.5 -0.34,-10.19 6.56,-8.47 20.73,-3.97 1.04,-2.6 0.69,-15.2 11.23,-9.67 8.47,-29.89 16.93,-26.26 0.17,-7.95 -10.88,-22.98 0.34,-24.36 4.84,-13.64 9.5,-13.13 22.29,-9.68 8.98,-13.47 9.33,-4.32 11.4,3.11 7.26,11.57 -3.63,16.59 -13.82,5.87 -15.89,-6.39 -3.11,1.21 -2.25,17.62 4.49,15.2 9.85,5.88 36.28,-9.16"
         transform="translate(-924.12,211.4)"
         id="path578"
         inkscape:connector-curvature="0" />
      <rect
         width="5.8699999"
         height="44.919998"
         x="416.01001"
         y="181.81"
         transform="matrix(0.34,0.4,-0.75,0.67,-511.6,101.76)"
         style="fill:#e6180a"
         id="rect580" />
      <path
         style="fill:#e6180a"
         d="m 97.01,367.81 15.27,3.44 10.75,18.28 -11.83,57 -30.75,57.22 -47.11,48.4 -41.51,0 -6.67,-9.04 52.91,-47.75 42.38,-69.26"
         transform="translate(-924.12,211.4)"
         id="path582"
         inkscape:connector-curvature="0" />
      <path
         style="fill:#e6180a"
         d="m 367.53,586.81 6.64,-4.98 19.08,-4.7 6.09,5.53 10.23,38.72 3.6,21.01 -2.77,39.27 -15.76,63.89 -11.62,28.2 -18.8,24.34 -22.96,15.76 1.66,-11.06 6.64,-10.78 12.72,-21.02 11.34,-33.46 10.23,-45.08 3.6,-32.08 -4.98,-35.95 -14.38,-25.72"
         transform="translate(-924.12,211.4)"
         id="path584"
         inkscape:connector-curvature="0" />
      <path
         style="fill:#000000"
         d="m 261.98,648.49 4.4,-4.33 13.63,-1.36 10.72,-3.87 1.69,-1.92 5.65,1.43 2.6,-3.65 3.95,1.8 3.01,-0.67 6.92,-1.89 16.53,-32.06 7.67,-18.74 5.69,2.74 6.73,-2.03 45.39,-13.92 2.96,6.2 -8.75,0.6 -16.14,4.28 -9.53,6.34 1.9,10.34 -6.08,2.79 -12.41,17.89 1.53,5.76 11.33,-2.59 6.11,-12.39 -2.03,-6.8 3.34,-0.83 12.39,22.63 -2.83,26.2 7.92,13.8 -4.59,34.4 -4.91,21.99 -5.86,23.06 -9.8,27.91 -15.72,26.41 -1.87,-11.75 9.46,-23.99 -4.53,-42.88 0.84,-39.96 -9.32,-3.02 -5.44,9.27 1.16,89.17 5.04,13.27 1.85,12.89 -3.63,15.77 6.33,16.25 -4.43,5.33 -4.27,10.39 7.05,19.04 3.87,-0.15 24.31,-14.74 4.73,12.62 -11.67,14.44 -19.12,4.05 -11.72,-17.24 -1.99,-24.07 0.08,-8.63 -6.67,-4.17 -0.71,-17.74 -13.06,-35.78 -3.59,-37.32 -0.5,-36.58 0.46,-23.22 -27.22,1.43 -2.36,4.3 -6.89,-4.06 -12.31,3.55 -9.44,-0.28 -10.67,6.06 -19.18,4.51 -17.9,2.38 7.11,-8.05 37.61,-7.41 12.96,-7.89 4.13,-19.65"
         transform="translate(-924.12,211.4)"
         id="path586"
         inkscape:connector-curvature="0" />
      <rect
         style="fill:#000000"
         width="5.8800001"
         height="5.0799999"
         x="363.29001"
         y="597.33002"
         transform="matrix(0.79,0,0,0.87,-846.87,289.5)"
         id="rect588" />
      <rect
         style="fill:#000000"
         width="4.8600001"
         height="12.65"
         x="340"
         y="787.47998"
         transform="matrix(0.92872,0,0,0.979541,-899.2212,228.0425)"
         id="rect590" />
      <rect
         style="fill:#000000"
         width="6.6700001"
         height="33.560001"
         x="378.38"
         y="628.45001"
         transform="matrix(1.035084,-0.123285,0.116183,1.068469,-1013.278,213.601)"
         id="rect592" />
      <path
         style="fill:#000000"
         d="m 402.5,576.72 c 0,1.22 9.55,21.3 9.55,21.3 l 6.12,30.85 0.74,41.62 -9.55,59.74 -2.45,5.87 2.2,1.23 2.45,-1.72 28.16,-59.49 11.26,-48.23 2.45,-25.95 4.4,1.71 -3.18,37.7 -14.44,51.66 -24.24,50.19 -26.69,35.5 -12.24,9.55 -0.98,-5.14 15.42,-28.16 18.12,-69.04 3.43,-40.64 -7.84,-45.29 -7.59,-23.26"
         transform="translate(-924.12,211.4)"
         id="path594"
         inkscape:connector-curvature="0" />
      <g
         transform="translate(-924.12,211.4)"
         id="g596">
        <path
           style="fill:#e6180a"
           d="m 222.72,65.72 19.32,1.69 10.63,24.13 -8.14,17.57 -26.72,-3.28 -4.3,-24.91"
           id="path598"
           inkscape:connector-curvature="0" />
        <path
           style="fill:#e6180a"
           d="m 282.89,41.48 15.88,-7.74 6.33,2.2 2.26,8.2 0.05,7.68 -4.52,12.94 -15.65,14.07 -27.46,6.27 -1.97,-7.57 9.77,-3.05 13.39,-13.11"
           id="path600"
           inkscape:connector-curvature="0" />
        <path
           style="fill:#ff009c"
           d="m 94.46,52.66 a 9.36,10.12 0 1 1 -18.72,0 9.36,10.12 0 1 1 18.72,0 z"
           transform="matrix(1.11,0,0,1.09,-11.05,-5.06)"
           id="path602"
           inkscape:connector-curvature="0" />
        <path
           style="fill:#00ff0a"
           d="m 116.03,107.81 a 9.19,8.1 0 1 1 -18.38,0 9.19,8.1 0 1 1 18.38,0 z"
           transform="matrix(1.176826,0,0,1.264088,-18.46231,-28.01318)"
           id="path604"
           inkscape:connector-curvature="0" />
        <path
           style="fill:#ff9e00"
           d="m 171.01,191.5 a 9.99,9.01 0 1 1 -19.98,0 9.99,9.01 0 1 1 19.98,0 z"
           transform="matrix(1.174557,0,0,1.184951,-28.51124,-35.03883)"
           id="path606"
           inkscape:connector-curvature="0" />
        <path
           style="fill:#0072ff"
           d="m 214.38,221.21 a 10.17,9.88 0 1 1 -20.34,0 10.17,9.88 0 1 1 20.34,0 z"
           transform="matrix(1.13,0,0,1.19,-26.39474,-42.6379)"
           id="path608"
           inkscape:connector-curvature="0" />
        <path
           style="fill:#ffff00"
           d="m 263.11,233.75 a 12.89,11.96 0 1 1 -25.78,0 12.89,11.96 0 1 1 25.78,0 z"
           transform="matrix(0.903636,0,0,1.084262,24,-18.35793)"
           id="path610"
           inkscape:connector-curvature="0" />
        <path
           style="fill:#e6180a"
           d="m 142.52,160.94 a 7.17,5.55 0 1 1 -14.34,0 7.17,5.55 0 1 1 14.34,0 z"
           transform="matrix(0.91,-0.55,0.55,0.9,-76.81,90.1)"
           id="path612"
           inkscape:connector-curvature="0" />
        <path
           style="fill:#e6180a"
           d="m 168.5,137.99 a 3.58,4.4 0 1 1 -7.16,0 3.58,4.4 0 1 1 7.16,0 z"
           transform="matrix(1.13,0,0,1.06,-21.08981,-8.265232)"
           id="path614"
           inkscape:connector-curvature="0" />
        <path
           style="fill:#e6180a"
           d="m 112.42,185.54 a 4.39,1.71 0 1 1 -8.77,0 4.39,1.71 0 1 1 8.77,0 z"
           transform="matrix(0.938389,-0.666241,0.652294,0.958452,-114.613,79.73326)"
           id="path616"
           inkscape:connector-curvature="0" />
        <rect
           style="fill:#e6180a"
           width="23.290001"
           height="11.32"
           x="25.879999"
           y="226.53999"
           transform="matrix(0.81772,-0.759927,0.785861,0.790735,-173.2408,79.48402)"
           id="rect618" />
        <rect
           style="fill:#e6180a"
           width="31.879999"
           height="10.78"
           x="-13.94"
           y="254.42"
           transform="matrix(0.870716,-0.702528,0.734339,0.847166,-187.8661,42.76772)"
           id="rect620" />
        <path
           style="fill:#e6180a"
           d="m -21.55,286.16 a 4.37,3.18 0 1 1 -8.73,0 4.37,3.18 0 1 1 8.73,0 z"
           transform="matrix(0.907717,-0.744927,0.730601,0.939754,-211.4329,-1.807364)"
           id="path622"
           inkscape:connector-curvature="0" />
        <path
           style="fill:#e6180a"
           d="m -24.77,573.32 7.33,-2.63 10.59,5.64 9.57,8.93 0.1,9.47 -20.45,10.64 -10.25,-6.8 1.02,-20.35"
           id="path624"
           inkscape:connector-curvature="0" />
        <path
           style="fill:#e6180a"
           d="m 56.86,267.99 23.43,-7.41 5.41,8.01 -6.81,89.9 13.81,16.02 -14.81,56.86 -16.82,7.61 -41.45,-15.61 -2,-16.82 15.82,-77.29 19.22,-54.46"
           id="path626"
           inkscape:connector-curvature="0" />
        <path
           style="fill:#e6180a"
           d="m 277.36,650.32 64.74,-14.83 16.79,-7.19 12.21,-1.16 3.19,5.88 0.29,29.07 -5.16,4.87 -91.41,7.19 -9.37,-1.67 -0.65,-12.43"
           id="path628"
           inkscape:connector-curvature="0" />
        <path
           style="fill:#e6180a"
           d="m 496.87,107.87 c 1.38,0 10.19,1.38 11.4,2.42 1.21,1.03 7.94,9.33 7.94,9.33 l -2.07,15.89 1.04,6.74 12.78,22.28 4.84,26.26 -4.84,33.52 -8.98,20.39 -48.03,-58.92 16.76,-5.35 15.89,-16.24 3.63,-17.8 -1.55,-1.9 -16.59,-2.07 -9.67,-14.34 6.73,-15.2"
           id="path630"
           inkscape:connector-curvature="0" />
        <path
           style="fill:#000000"
           d="m 175.26,128.62 c -11.91,9.27 -24.96,25.84 -39.04,31.31 -5.6,2.13 -15.43,-13.49 -20.6,-0.51 -8.31,-2.38 -14.6,1.35 -15,10 -9.31,0.03 -21.04,7.11 -26.26,15.04 -5.22,7.96 3.68,16.75 -2.75,24.03 -15,16.96 -37.99,30.2 -55.42,44.64 -5.91,4.85 -17.65,11.03 -16.05,20.28 2.2,12.64 22.11,-4 26.23,-7.5 11.92,-9.76 24.17,-21.06 37.25,-29.08 2.6,-1.59 8.79,-8.42 11.87,-7.8 3.41,0.77 10.31,17.97 11.02,21.39 1.11,6 -5.91,15.34 -7.89,21 -6.7,19.2 -14.08,38.41 -19.42,58 -5.62,20.63 -5.83,44.02 -13.38,64 -3.87,10.1 -12.01,18.23 -16.83,28 -8.04,16.32 -14.58,36.37 -19,54 -4.2,16.76 -4.67,36.75 -3.38,54 0.32,3.13 4,5.24 3.95,8 -0.07,3 -5.63,3.76 -6.5,7.06 -1.13,4.27 2.19,7.94 2.12,11.94 -0.28,15.37 -6.83,33.38 2.43,48 6.95,10.33 35,-3.26 39,-11.51 2.32,-4.35 -1,-8.69 -2.67,-12.49 -5.52,-11.43 -14.45,-17.79 -24.33,-25.23 -2.79,-2.17 -4.8,-12.11 -2.27,-15.16 2.27,-2.6 6.54,-0.6 9.27,-0.06 7,1.52 15.7,0.62 23,0.46 24.96,-0.62 47.34,-3.76 71,-12.68 6.88,-2.6 19.23,-5.68 23,-12.32 -21.39,1 -40.48,15.57 -63,12 0.35,0.06 16.08,-15.83 16.08,-15.83 7.08,-8.92 30.29,-36.16 35.49,-46.17 3.7,-7 7.29,-18.94 13.19,-24.4 3.46,-3.2 12.65,-1.89 17.24,-2.8 11,-2.23 22.48,-6.3 31.55,-13.31 9,-6.96 4.38,-21.34 18.45,-24.83 7.79,-1.93 14.81,4.89 15.43,12.35 0.52,6.25 -5.02,12.56 -10.43,15.01 -5.54,2.51 -11.25,-0.39 -17,3.06 -14,8.36 -21.6,27.15 -26.12,41.93 -1.28,4.19 -4.08,13.47 -0.88,17.38 3.79,4.62 22.27,-1.38 27,-3.05 12.21,-4.02 28.38,-9.21 37.43,-18.88 3.1,-3.32 2.56,-8.36 4.01,-12.45 3.75,-10.61 12.89,-16.65 23.38,-10.83 8.19,4.58 6.66,13.84 1.08,19.83 -7.59,8.09 -18.52,3.02 -25,12.04 -9.47,13.2 -13.08,32.3 -16.23,47.96 -0.75,3.74 -2.67,14.25 0.94,17 3,2.33 8.29,0 11.4,-0.98 10.31,-3.02 20.18,-7.3 29.41,-12.92 9.05,-5.51 15.79,-12.1 23.59,-19.1 -12,22.69 -22.02,46.64 -32.69,70 -3.79,8.29 -7.09,23.38 -13.81,29.59 -6.5,6 -23.98,-9.78 -30.5,-12.21 -3.25,-1.23 -9.64,-2.75 -12,0.94 -6,9.4 14.97,22.39 20,27.68 -16.47,-0.71 -33.56,-4.65 -50,-3.96 -5,0.21 -13.34,-0.04 -17,3.76 -4,4.01 -0.54,7.92 4,8.92 12.27,2.71 26.5,5.03 39,6.28 l 0,1 c -10.46,2.49 -21.45,-0.29 -32,1.59 -3.63,0.65 -9.18,1.8 -11,5.51 -2.39,5.3 5,8.21 9,8.71 13.31,1.68 27.62,1.18 41,1.18 l 0,2 c -13.31,1.05 -26.04,3.58 -39,6.77 -4,0.97 -13.19,3.91 -8.39,9.67 3.39,4.18 10.39,3.74 15.39,3.56 13.71,-0.66 27.33,-5.72 41,-6 -6.43,8.46 -19.39,10.67 -27,19 -12.81,14.35 10.19,8.62 17,5 -3.75,11.03 -9.42,21.32 -14,32 -1.57,3.65 -5.1,8.7 -4.5,13 0.5,3.38 3.5,2 4.97,0 3.21,-5.17 5.27,-11.5 7.53,-17 l 1,0 -2,10 c 9,-1.47 15.26,-23.96 18,-32 l 1,0 c -1,3.75 -9.6,18.13 -5.44,20.82 2.44,1.67 4.44,-3.26 5.15,-4.82 3.29,-7.6 7.29,-15.18 10.29,-23 l 1,0 -7,22 c 11.51,-3.42 12.47,-25.66 20,-34 l -10,27 c 8,-0.65 11.71,-15 14,-22 l 1,0 -5,17 c 7.24,-1.18 10.19,-11.67 12,-18 l 1,0 -3,13 c 6.5,-1 8.17,-8.43 10,-14 l 1,0 c -3.73,12 4,7.37 7,-1 l 1,0 0,6 c 6.31,-1 8,-7.57 10,-13 l 1,0 -1,9 c 5.52,-0.95 6.83,-6 8,-11 l 1,0 -1,7 c 6.42,-0.51 8.39,-6.4 10,-12 l 1,0 -1,9 c 4.87,-0.87 6.26,-5.77 8,-10 l 1,0 0,6 c 6,-0.99 7.71,-6.55 9,-12 l 1,0 c -2.33,13.33 4.84,2.46 9.19,0.6 4.02,-1.6 10.4,-1.05 14.81,-1.6 0,41.58 -3.34,80.51 9.81,121 1.66,5.11 4.7,9.79 6,15 1.86,7.44 -2.94,18.15 8.18,19 -0.71,16.65 -1.27,32.71 9.59,47 7.75,10 29.39,-1.7 34.06,-10 8.59,-15.27 -7.83,-29 -19.65,-37.34 -4.22,-2.92 -15.24,-9.55 -12.67,-16.45 1.58,-4.21 9.05,-7.38 12.67,-9.63 9.64,-6 18.66,-13.08 26.95,-20.86 21.76,-20.44 36.73,-46.16 49.67,-72.71 15.39,-31.69 26.39,-69.63 26.39,-105 0,-9 -0.16,-18 -0.29,-27 -0.03,-1.98 -0.11,-7.73 -3.52,-7 -3.3,0.55 -2.18,7.46 -2.18,9.71 0.29,10.29 -0.7,20.29 -2.13,30.29 -3.46,24.63 -8.12,50 -17.87,73 -6.59,16 -17,31 -23,47 l -1,0 c 13,-40.94 15.35,-86.99 6.8,-129 -2.33,-11.44 -6.23,-23.2 -12.8,-33 -1.5,-2.48 -3.17,-7 -6.21,-8 -3.16,-1.23 -10.35,2.26 -13.37,3.55 -10.07,4.45 -20.42,8.24 -30.42,12.45 8.96,-7.7 31.17,-22.55 30.9,-35.99 -0.17,-8.01 -7.9,-14.01 -6.71,-23.01 0.77,-6 7.45,-12 13.79,-11.49 2.44,0.22 4.38,1.59 6.28,3.02 13.47,10.17 -0.96,18.51 -0.99,29.46 -0.03,10.04 5.72,24.05 10.66,32.7 3.06,5.52 10.27,21.1 18.6,17.73 4.46,-1.82 6.86,-8.39 8.78,-12.39 5.31,-11.02 12.44,-24.33 10.37,-37.04 -1.41,-8.64 -15.81,-19 -1.08,-26 4.9,-2.41 9.92,2.27 10.71,7 1.03,6.13 -4.14,12 -4.33,18 -0.24,15.17 13.64,27.39 24.42,35.74 3.58,2.82 25.04,16.79 27.76,7.03 1.22,-4.36 -3.19,-11.03 -4.99,-14.77 -6.2,-12.62 -12.77,-24.87 -17.78,-38 -6.42,-16.84 -13.78,-33 -16.96,-51 -2.95,-16.64 -1.03,-35 -8.28,-50.83 -4.96,-10.73 -13.35,-19.55 -23.2,-25.99 -5.2,-3.39 -12.52,-5.67 -16.57,-10.56 -2.99,-3.61 0.21,-8.56 0.49,-12.62 0.74,-10.76 -3.21,-20.98 1.7,-31.73 1.76,-3.84 9.09,-6.8 12.4,-9.27 6.73,-5.4 12.18,-11.35 21,-12.5 14.64,-1.91 28.84,16.33 30,29.5 -4.56,0.01 -8.76,0.29 -13,2.17 -25.54,11.33 0.2,54.1 23.79,32.98 9.21,-8.33 1.76,-16.64 2.95,-26.15 0.48,-3.87 4.03,-6.63 5.71,-10 3.1,-6.24 4.56,-16 4.17,-23 -1.13,-15.19 -12.94,-28.62 -12.35,-44 0.73,-18.93 25.2,-36.37 33.42,-53 11.32,-23.29 13.18,-53.63 3.66,-78 -2.85,-7.3 -9.34,-13 -11.95,-19.95 -1.4,-3.48 2.28,-7.45 2.5,-11.05 0.79,-12.74 -6.89,-24.83 -20.89,-23.61 -14.49,1.26 -24.46,18.93 -16.27,31.61 5.27,8.32 15.05,10.69 24.27,9 -0.24,28.09 -31.75,43.31 -57,39.57 -14.49,-2.14 -25.66,-10.2 -41,-9.53 -11.18,0.49 -21.22,4.55 -32,6.96 -3.54,0.63 -9.14,3 -12.54,1 -13.6,-7.58 -7.67,-23.77 -6.46,-35 8,5.62 17.42,10 26.99,4.36 14.26,-8.36 11.33,-32.9 -4.99,-36.89 -7.65,-1.87 -16.66,1.18 -21.35,7.57 -2.16,2.96 -2.29,7.69 -5.17,10.02 -5.69,4.6 -15,5.15 -21.28,10.13 -13.35,10.58 -17.76,31.81 -16.04,47.81 0.7,6.58 2.83,14.03 5.83,20 2.28,4.51 6.87,8.29 4.79,13.83 -3.97,10.56 -13.18,19.91 -17.98,30.34 -3.82,8 -3.2,18.12 -7.25,25.64 -1.99,3.7 -6.58,5.4 -9.24,8.63 -4.36,5.31 -3.5,12.27 -2.33,18.56 -14,-3.29 -31.63,6.73 -28,22 -6.05,-4.19 -13.8,-10 -21,-11.87 -30.62,-7.13 -63.1,18.14 -91.09,26.89 -6.63,2.08 -14.97,4.23 -21.91,3.97 -5,-0.24 -12.27,-2.83 -16.72,0.03 -7.61,4.97 3.72,11.8 5.72,15.54 2.26,4.11 -4.41,2.6 -6,1.85 -6,-2.81 -22,-9.85 -25,-15.73 -2.18,-4.53 0,-14.51 -0.02,-19.68 -0.41,-20.49 4.78,-40.72 5.02,-61.02 0,-6.22 1.39,-12.86 0.9,-19 -0.29,-3.65 -2.47,-7.26 -0.71,-10.83 2.54,-5.16 7.61,-9.17 10.45,-14.34 3.93,-7.1 5.24,-15.21 11.04,-21.21 6.33,-6.62 18.67,-12.58 23.01,-20.88 1.95,-3.72 -1.68,-7.17 -0.1,-10.53 1.33,-3.09 7.73,-5.83 10.42,-7.71 9,-6.22 17.4,-12.99 25.98,-19.75 2.96,-2.34 7.44,-9.4 11.51,-5.38 7.9,7.8 2.92,36.77 -7.79,40.64 -5.71,2 -11.35,-6.19 -18.7,-3 -5.29,2.06 -8,7.55 -8,13 -0.32,19.37 31.5,16.15 26,-3 23.71,-6.48 18.79,-36.97 24.21,-55 2.08,-6.92 9.67,-11.83 10.79,-18 4.29,-1.27 8.23,-7.28 12.24,-1.77 3.76,5.34 -0.52,22.77 -0.24,29.77 0.82,17.27 6,33 -0.6,50 -1.5,3.8 -2.86,10 -6.61,12.11 -2.66,2.83 -11.1,1.2 -16.41,3.67 -9.91,7.04 -7.64,29.57 12.07,22.6 10.63,-3.75 4.9,-10.94 9.98,-17.61 5.29,-6.96 13.76,-11.25 18.57,-18.76 10.94,-16.95 5.3,-36.98 2,-55 -1,-5.28 -3.34,-25.79 5.96,-25.79 3.52,0 5.02,5.19 5.99,7.79 3.3,9 6.59,17.74 8.63,27 4.42,20.35 6.88,48.66 -5.93,67 -4.23,6 -13.31,3.1 -16.65,11.02 -3.35,8.66 0.66,18.35 10,20.45 10,2.28 17.39,-5.96 16.96,-15.46 -0.16,-3.52 -2.99,-7.76 -1.23,-11 2.79,-5.23 8.15,-8.58 10.89,-14 8.87,-17.57 10.21,-42.51 3.68,-61 -5.3,-14.59 -29.34,-32 -24.4,-48 4.09,-13.26 19.66,-10.91 30.09,-16.4 23.62,-12.43 29.16,-29.53 21.03,-52.43 -0.57,-4 4.35,-7.9 1.94,-12.02 -2.16,-3.69 -6.97,-3.15 -9.21,0 -4.48,6.36 3.71,10.85 -4.42,17.04 -5.04,3.91 -11.62,2.46 -17.33,4.51 -2.65,0.96 -4.53,3.9 -7.26,4.41 -4.28,0.89 -8.15,-2.45 -12.21,0.89 -6.56,5.01 -4.53,19.65 -16.53,21 -18.56,1.67 -17.12,-12.61 -26.47,-24 C 238.85,17.57 227.6,12.26 216.6,9.67 200.25,5.83 181.8,10.26 171.57,24.6 c -5.97,8.31 -8.69,28.61 -21.97,28.16 -5.18,-0.18 -18.33,-4.27 -20.36,-9.54 -2.64,-6.46 1.71,-12.79 -5.74,-17.78 -7.04,-4.59 -17.56,-1.46 -19.51,7.01 -1.82,7.98 1.61,16.81 10.61,17.78 3.63,0.4 7.45,-1.8 10.83,-0.13 8.99,4.78 15.86,13 27.17,10.87 14.73,-2.78 19,-22.53 30,-31.24 13.56,-10.68 38.57,-1.58 52,5.13 4.84,2.58 12.66,6.58 13.67,12.58 1.12,6.59 -12.67,2.29 -15.67,2 -16.62,-2.37 -36,2.71 -44.76,18.02 -6.34,11.07 -1.62,23.02 -17.24,27.68 -4.29,1.3 -10.76,3.3 -14.49,-0.26 -4.83,-4.44 -2.79,-12.29 -10.53,-14.78 -8.29,-2.65 -17.54,1.07 -18.76,10.35 -0.26,2.01 0,4.08 0.62,6 5.15,16.27 17.99,4.24 28.15,5.54 9.83,1.26 18.99,4.15 27.96,-2.96 11.28,-8.94 9.04,-22.58 25.04,-28.24 6.63,-2.32 27.29,-7.92 30.35,1.67 2.2,6.98 -7.48,11.4 -11.77,14.71 -9.96,7.69 -19.7,15.86 -29.58,23.89 -3.1,2.71 -18.15,14.36 -22.33,17.56 z m 118.36,-66.2 c 9.88,-1 21.73,-12.67 24.43,-22 1.19,-4 -0.95,-10 1.45,-13.66 2.71,-4.06 14.66,-9.7 17.89,-4.26 10.57,17.92 -11.88,40.09 -27.78,42.05 -4.99,0.61 -13.99,4.7 -15.99,-2.13 z m -178,-35.6 c 12.17,-1.59 15.38,18.64 3,20.38 -13.22,1.86 -16,-18.7 -3,-20.38 z m 171,16.6 c -0.34,3.05 1,9.13 5.45,5.57 1.83,-1.48 -7.15,-10.57 -1.85,-15.96 3.02,-3 7.8,-0.27 11.4,-0.78 3.45,-0.49 7,-4.58 10.68,-3.16 4.61,1.8 2.05,11.39 0.32,14.42 -4.5,8.04 -15.72,19.48 -26,17.63 -11.26,-2.05 -7.05,-13.49 0,-17.72 z m 14,-6 4,7 c 6.54,-4 3,-10.32 -4,-7 z m -9,10.65 c -0.36,0.36 -1.92,1.2 -2.57,0.95 -0.65,-0.25 -1.55,-7.28 -1.55,-7.28 0,0 4.48,5.97 4.12,6.33 z m -28,4.1 c 11.7,-2.75 21.88,21.33 18.26,30.25 -3.09,7.53 -8.07,1.48 -13.26,2.75 -3,0.74 -4,4.29 -7.06,4.88 -1.94,0.38 -4.13,-0.56 -4.19,-2.62 -0.12,-4.22 6.53,-5.52 4.78,-9.97 -1.85,-4.69 -13.53,-1.43 -12.53,-7.03 1.18,-6.62 9.52,0 11.91,-4.28 2.31,-3.97 -5.65,-12.12 2.09,-13.98 z m -126,31.59 c 12.86,-2.34 18.18,16.17 4,18.43 -12.29,1.97 -16.73,-16.04 -4,-18.43 z m 394,486.66 c -19,-3.67 -40.17,-19.38 -45.21,-39 -2.83,-11 12.62,-25.37 -4.79,-32.47 -8.49,-3.52 -15.43,8.49 -15.42,15.47 0.01,7.31 6.08,10.55 7.84,17 2.78,10.12 -6.42,25.35 -10.83,34 -1.59,3 -3.65,8.56 -7.59,9.08 -6.01,0.92 -13.19,-15.57 -15.13,-20.08 -2.99,-6.96 -8.3,-17.26 -7.56,-25 0.43,-4.47 4.02,-7.77 5.19,-12 2.85,-10.41 -0.97,-21 -11.5,-24.85 -7.39,-2.71 -17,3.89 -19.21,10.86 -3.79,11.13 6.42,18.56 5.02,28 -2.08,14 -25.01,27.47 -34.81,36 l -1,0 c -8.75,-7.81 -8,-19 -9.42,-30 -0.58,-4 -1.92,-10.77 0.42,-14.41 5.74,-8.59 18,-9.9 15.53,-23.59 -2.64,-14.53 -20.53,-16.43 -29.13,-5.96 -8.39,10.18 0.52,20.63 -4.1,30.96 -7.48,16.72 -25.29,29.41 -38.29,41 0,0 -5.07,-0.04 -6.06,-1.04 -0.99,-1 -3.19,-3.53 -4.1,-6.13 -2.49,-7.12 -3.42,-17.37 -2.55,-24.83 0.71,-7.35 -1.74,-19 1.32,-25.72 2.63,-5.69 14.38,-7.25 18.88,-11.99 10.16,-10.69 -2.54,-28.04 -15.49,-26.07 -9.78,1.49 -17.6,12.08 -16.81,21.79 0.37,4.56 3.99,10.19 1.38,14.49 -11.04,18.19 -39.85,28.8 -59.57,32.51 0,-18 5.73,-48.77 19.52,-61.68 7.33,-6.87 18.68,-0.96 25.48,-12.32 7.27,-12 -1.71,-25.94 -14.99,-26.77 -9.31,-0.58 -16.68,8.77 -19,16.77 -0.76,3 0,7 -1.69,9.37 -7.64,9.86 -24.31,14.06 -35.31,18.21 -4.2,1.56 -20.62,7.18 -24,2.82 -3.28,-4.34 2.9,-15.2 4.54,-19.39 4.46,-11.53 10.65,-25.59 22.46,-31.68 8.77,-4.52 17.57,0.93 24.27,-9.32 8.73,-13.57 -2.47,-33.73 -19.27,-27.94 -13,4.46 -10,16.64 -17.43,24.47 -12.07,12.63 -34.3,14.47 -50.57,14.47 1.88,-15 17.31,-38.48 30.17,-46.39 4.16,-2.56 8.46,-0.1 12.83,-1.08 9,-2.07 16.95,-13.22 14.58,-22.49 -2.26,-8.83 -14.92,-12.04 -22.58,-9.03 -3.04,1.23 -5.68,4.72 -9,5.07 -3.41,0.37 -6,-3.77 -8.09,-5.79 -5.64,-5.25 -14.66,-10.17 -15.91,-18.29 14.51,0 28,0 41.87,-5 22.46,-8.25 44.88,-23.8 69.13,-26.81 16.44,-2.04 25.65,12.81 41,12.81 -0.07,-3.4 -1.38,-7.71 -0.22,-10.96 4.05,-11.3 21.04,-5.73 26.62,-13.04 2.77,-3.86 0.8,-8.9 2.46,-13 2.14,-5.41 8.14,-7.22 10.71,-12 3.75,-7.25 3.43,-16.49 6.78,-24 5.12,-11.62 15.65,-23 19.14,-35 2.29,-8 -6.1,-17.38 -8.49,-25 -5,-15.66 -3.67,-31.61 4.68,-46 7.32,-12.82 17.69,-11.88 28.3,-18.74 8.3,-5.26 13.28,-21.74 27.01,-14.8 10.58,5.34 10.8,22.86 0,28.23 -9.34,4.64 -15,-4.29 -23,-2.68 -14.35,2.56 -6,31.13 -0.36,37.69 4.2,4.92 9.6,4.39 15.36,3.31 12.19,-2.67 23.43,-6.78 36,-7.83 12,-1 21,6.83 32,9.35 23.17,5.64 60.7,-4.52 67,-30.53 1,-4.24 3,-11 -0.44,-14.57 -3.12,-3.17 -7.65,-1.99 -11.56,-2.78 -8.04,-1.61 -14.1,-9.49 -12.67,-17.66 2.46,-14 21.26,-18.58 29.28,-7 5.72,8.26 -1.75,15.75 0.23,24 0.99,4.01 5.48,7.31 7.5,11 4.66,8.54 7.52,17.41 9.2,27 4.44,25.29 -2.17,50 -16.63,71 -8.1,11.76 -22.29,22.03 -24.61,37 -2.64,17.07 9.9,31.5 11.53,48 0.65,6.6 -0.46,15.83 -3.12,22 -1.46,3.31 -4.87,5.26 -5.47,9.02 -1.59,9.98 5.52,19.54 -5.38,27.38 -11.12,8 -28.53,-4.4 -25.45,-17.4 1.15,-4.79 4.78,-10.21 9.58,-11.77 3.79,-1.23 9.57,-0.66 11.97,-4.51 2.76,-4.42 -0.73,-11.72 -3.09,-15.72 -7.06,-11.57 -17.67,-20.17 -31.88,-18.23 -6.33,0.86 -11.15,5.75 -16,9.47 -5,3.78 -12.52,7.35 -16.39,12.16 -7.38,9.15 -3.67,23.61 -3.63,33.61 0.02,4.71 -3.64,10.48 -2.27,15 2.01,6.54 13.91,10.63 19.3,14 10.26,6.2 18.34,15.2 23.63,26 9.62,19.67 6.18,46.71 12.28,68 5.38,18.78 13.7,37.42 22.09,55 4.38,8.97 10.26,17.48 12.99,26.97 z m -334,-452.26 c 5,-1.48 6.57,7.3 1.86,8.51 -5.33,1.37 -6.94,-7 -1.86,-8.51 z m -33,20.26 -1,1 1,-1 z m 4,1.49 c 9.61,-1.81 7.82,9.88 -1,11.21 -9.67,1.47 -6.05,-9.88 1,-11.21 z m -46.7,21.22 c 8.62,-3.06 11.9,23.29 5.53,24.37 -5.52,0.95 -11.83,-22.08 -5.53,-24.37 z m -5.3,34.29 c -8,-1.34 -13.64,-20.72 -10.26,-27.72 3.95,-8.16 8.97,4.34 9.26,7.72 0.35,2.67 0.84,5.31 0.96,8 0.04,4 0.04,8.01 0.04,12 z m 44,-30 c -2.71,9 -14,12.72 -19.72,19.18 -6.7,7.4 -8.59,19.38 -15.28,27.53 -3.61,4.67 -12.49,6.91 -15.08,10.82 -1.92,2.8 4.08,4.06 5.48,5.47 3.06,3 1.6,9.68 -0.97,12.43 -3.69,3.76 -19.43,10.57 -24.13,6.95 -3.98,-3.07 -5.06,-9.95 -6.76,-14.38 -1.15,-2.98 -3.54,-6.5 -3.04,-9.83 0.43,-3.42 7.99,-11.48 11.5,-11.57 2.98,-0.07 4.8,2.6 7.95,1.48 5.28,-1.88 4.05,-7.98 7.28,-11.47 5.09,-5.56 11.15,-0.82 12.77,-11.62 17.46,2.09 21.66,-22.99 40,-24.99 z m 29,1.43 c 14,-4.05 21.58,14.76 7.96,18.9 -12.23,3.72 -20.22,-15.33 -7.96,-18.9 z m -45,0.57 c -0.74,4.13 -3.07,4.64 -7,5 0.73,-4.36 2.83,-4.86 7,-5 z M 94,175.17 c 3.19,-0.92 4.86,2.91 5.58,5.25 1.46,4.75 7.31,24.12 0.82,26.74 -3.2,1.29 -5.39,-2.34 -6.37,-4.74 -1.89,-4.64 -7.52,-25 -0.03,-27.25 z m -6.38,36.25 c -7,-2.3 -13.28,-18 -9,-24.72 4,-6.28 8,1.94 8.7,5.72 0.3,2.65 0.3,5.34 0.72,8 0.51,4 0.29,7.18 -0.42,11 z m 392,16 c 0,0 -6.22,-4.12 -13.44,-6.06 -5.57,-1.5 -11.84,-0.94 -15.56,-0.94 0.74,-5.82 4.2,-13.21 2,-19 -7.08,-20.27 -43.39,-7 -55,-0.21 -28.12,16.57 -47.01,51.77 -42.41,84.22 0.64,4.48 -0.59,8.53 1.14,13 7.79,20 35.02,18.04 52.27,16.17 38.31,-4.18 82.63,-46.99 71,-87.18 z m -244,-32.52 c 14.75,-3.71 15.33,17.76 3.83,20.24 -14.83,3.28 -18.27,-16.61 -3.83,-20.24 z m 174,43.52 -11,11 c 10.41,-1.79 23.85,-7.97 28.43,-18 4.57,-10.35 -4.93,-28 -16.43,-29 2.62,9.43 21.65,27 4,33 0,-12.37 -2,-25.64 -17,-26 4.38,-14.56 41.99,-19.78 51.26,-7.66 4.7,6.14 -4.62,15.21 1.18,20.02 8.33,6.91 24.55,-1.8 28.99,13.64 3.84,13.36 -5.67,28 -13.16,38 -19.41,26.15 -65.52,53.36 -98.27,33 -8.16,-5.25 -10,-16 -10,-25 -0.03,-19.4 4.93,-32.71 15.29,-49 3.39,-5.33 8.71,-17.48 15.65,-18.83 3.06,-0.63 4.46,5.82 5.37,7.82 3.3,7.75 7.2,14.49 15.69,17.01 z m -331.8,-30 c 3.54,-0.65 5.79,4.23 4.81,7.04 -1.34,4.59 -9.83,13.58 -14.83,13.96 -3.17,0 -7.17,-4.5 -5.59,-7.49 1.59,-3.24 12.2,-13.04 15.61,-13.51 z m 201.8,0.6 c 13.21,-5.15 20.24,14.76 8.91,19.5 -13.55,5.68 -21.23,-14.66 -8.91,-19.5 z m 131.31,26.38 c -0.7,0.52 -1.37,-0.05 -2.56,-0.44 -1.19,-0.39 -3.94,-3.28 -5.43,-4.98 -1.49,-1.7 -4.68,-6.33 -4.68,-6.33 0,0 3.01,1 5.93,-1.64 2.92,-2.64 3.04,-5.69 3.04,-5.69 0,0 1.51,1.73 3.25,6.93 0.93,2.8 1.97,8.19 1.76,9.38 -0.21,1.19 -0.61,2.25 -1.31,2.77 z m -13.71,-22.29 c 2.11,-2.11 3.29,-1.26 4.42,-0.86 1.13,0.4 3.85,1.99 3.85,1.99 0,0 -2.4,-0.34 -5.17,2.16 -2.77,2.5 -2.91,4.67 -2.91,4.67 0,0 -1.23,-2.65 -1.4,-4.03 -0.24,-1.9 -0.91,-1.81 1.21,-3.93 z m -369.6,47.31 c -11.41,-7.26 9.57,-23.51 18,-25.52 10.85,-2.48 3.19,9.52 0,12.09 -2.28,1.91 -4.62,3.76 -7,5.54 -3.61,2.7 -7.42,5.14 -11,7.89 z m 411,-16 15,8.04 12,8.96 c -0.75,-13.75 -14.64,-20.65 -27,-17 z m -71,18 12,-16 c -8.34,0.56 -14.03,7.67 -12,16 z m -263,-13.67 c 15.62,-2.6 9.89,21.71 8.83,31.67 -1.83,15.72 -2.83,31.22 -3.92,47 -0.37,5.45 -2.91,11.66 -2.41,17 0.71,9 8.01,8.35 10.89,14.31 2.6,5.42 0.19,15.07 -0.82,20.69 -1.68,9.31 -6.92,34.8 -17.67,37.68 -4.62,1.32 -9.56,-1.01 -13.91,-2.25 -11.02,-3.14 -29,-5.31 -30.68,-19.43 -1.04,-8.35 2.35,-18.67 3.55,-27 4,-27.8 12.39,-55 19.99,-82 4.15,-14.89 8.1,-34.67 26.15,-37.67 z m 326,6.67 -5,0 c 0.95,13.13 18.45,21.29 30,23 -0.02,-6.51 -0.29,-17.79 -5.28,-22.58 -4.85,-4.68 -18.12,-10.2 -19.72,-0.42 z m -14,32 -7,11 c 17.82,-2.78 11,-18.94 6,-30 -5,4.77 -0.45,8.62 1,14 -9.72,-1.47 -19.56,-11.98 -26,-19 -2.25,-2.61 -5,-9.36 -9,-9.36 -11.28,0 -9.25,22.7 -4.5,28.14 8.34,9.55 28.5,7.26 39.5,5.22 z m -15,-33 c -1,6.66 6,10.35 12,11 -0.5,-6.51 -6.37,-9 -12,-11 z m -20,4 23,26 c -12.7,0 -33.83,-10 -23,-26 z m 50.89,-2.29 c 0.88,-1.59 2.86,-3.48 5.66,-3.77 2.8,0 4.96,2.03 4.96,2.03 0,0 -3.33,0.87 -5.71,3.52 -2.38,2.65 -2.96,7.51 -2.96,7.51 -2.8,-0.58 -3.29,-6.48 -1.95,-9.29 z m 11.09,7.8 c 2.74,-2.67 2.69,-6.8 2.69,-6.8 0,0 3.09,2.26 4.57,6.39 1.51,4.21 2.83,9.12 1.35,10.6 -1.48,1.48 -6.6,-0.92 -9.79,-2.39 -2.61,-1.2 -5.77,-4.41 -5.77,-4.41 0,0 4.37,-0.88 6.95,-3.39 z M 7.62,267.04 c 6.58,-0.35 4.34,7.38 -1,7.81 -5.61,0.6 -4.12,-7.43 1,-7.81 z m 354.74,67.41 c -2.36,2.23 1.71,5.15 3.26,6.09 4.26,2.39 14,6.88 18.34,2.14 4.03,-4.43 -18.53,-11.13 -21.6,-8.23 z m -44.74,5.97 c 6,25.8 35.92,39.34 59,44.76 9,2.24 24.34,3.85 31,-3.76 -20.43,-5.29 -39.11,-5 -58,-16.61 -10.01,-6.07 -20.51,-23.39 -32,-24.39 z m -164.05,44.92 c -14.5,57.41 -39.14,104.47 -74.49,134.65 -11.74,10.03 -24.1,14.43 -39.46,14.43 -3.17,0 -12,1.52 -13.34,-2.31 -1.74,-4.56 32.17,-32.48 42.75,-43.69 22.83,-24.68 39.24,-52.89 50.59,-84 6,-16.19 11.95,-32.5 12,-50 3.94,0.01 23.51,10.87 21.95,30.92 z m 1.05,16.08 5,-30 -10,-16 c 5.99,1.63 10.82,8.29 17,9 10,1.06 20,-10.93 30.43,-0.25 2.95,3.06 1.82,7.91 0.01,11.25 -7.91,14.56 -18.44,4.3 -28.44,11.19 -5.65,3.9 -7.61,12.81 -14,14.81 z m -124,106 c -5.58,-1.77 11.57,-55.71 14.98,-64.83 2.67,-7.16 7.02,-19.46 12.64,-24.81 3.02,-2.91 10.02,-1.95 10.77,2.7 1.05,6.49 -6.66,15.03 -8.95,20.94 -7.26,18.7 -12.73,36.63 -17.56,56 -1.39,5.49 -6.3,11.77 -11.88,10 z m 272,-33.66 c 10.3,-2.02 19.88,5.85 15,16.66 -2.65,6 -13.62,12.09 -20,13.33 -5.48,1.08 -6.58,-7.33 -7.12,-11.33 -1.17,-8.39 3.12,-16.9 12.12,-18.66 z m 11,151.66 c -2,-7 7.65,-21.37 10.78,-28 10.8,-22.89 23.22,-46.2 31.93,-70 2.93,-8 -5.71,-16.92 -2.92,-26 2.42,-8.28 12.86,-14 20.92,-9.71 8.26,4.52 6.67,14.7 1.08,20.7 -3.97,4.15 -10.37,5.48 -13.79,10.19 -6.01,8.25 -9.51,19.56 -13.76,28.81 -11.27,24.51 -21.24,50.43 -34.24,74.01 z m -17,-114 -13.69,34 -30.31,68 -1,0 c 1.33,-15 32.8,-86.9 45,-102 z m 0,13 c 0,0 -24.37,79.07 -38,88 l 24.58,-57 13.42,-31 z m 67,6 -10.58,27 -30.42,66 -1,0 c 3.5,-19.67 17.37,-40.83 25.69,-59 4.96,-10.83 8.67,-24.77 16.31,-34 z m -17,7 -41,90 -1,0 c -1,-7.37 5.98,-17.4 9.25,-24 7.51,-15 14.12,-30.77 21.49,-46 3.26,-6.75 5.44,-15 11.26,-20 z m 18,8 c -2,18.32 -16.65,40.26 -24.31,57 -2.72,6 -5.08,15.33 -10.69,19 l 22.22,-50 12.78,-26 z m -68,2 -17.58,41 -12.42,26 c -1,-7.68 5.68,-18.22 9,-25 7,-13.51 13,-27.96 19,-42 l 2,0 z m 69,6 c 1.59,8.72 -2.68,15.23 -6.14,23 -6.1,13.69 -16.24,29.27 -18.86,44 8.67,0 11,-5.65 14.27,-13 5.43,-12.4 14.63,-25.52 16.73,-39 l -1,0 -23,50 -1,0 c 2.44,-16.5 14.61,-37.62 23,-52 0,0 6.2,5 8,5 1.8,0 8.3,-1.74 21.57,-7.23 1.77,-0.58 34.26,-10.77 30.18,-4.46 -1.25,1.97 -6.58,0.46 -8.76,1.69 0,0 -25.61,4.31 -23.78,13.01 2.78,13.38 14.5,25.14 17.78,38.99 8.64,35 -0.49,71.09 -8.68,105 -3.75,15.55 -10.03,33 -17.63,47 -4.2,7.77 -12.84,16.57 -14.95,25 -0.84,3.34 -2.74,10.76 -1.91,14 0.97,4.16 4.87,8.23 4.11,12.83 -1.4,8.56 -8.67,11.65 -6.42,22.17 0.48,2.4 1.4,4.74 2.34,7 6.14,15 13.99,1.35 25.14,-2.42 2.48,-0.84 6.24,-2.54 8.68,-0.85 6.98,4.86 -3.99,17.27 -8.72,19.28 -4.11,1.8 -12.15,5.34 -16.58,3.38 -8.43,-3.72 -12.6,-22.22 -13.19,-30.39 -0.35,-4.84 2.06,-10.25 0.21,-14.95 -1.4,-3.43 -5.4,-4.67 -6.65,-8.05 -1.75,-4.19 0.75,-8.71 -0.38,-13 -2.36,-8.89 -7.4,-17 -9.93,-26 -5.05,-17.81 -6.51,-36.65 -8.26,-55 -1.17,-11.9 0.1,-25 0.83,-37 0.43,-4.93 2.34,-11 0.4,-15.94 -2.96,-7.34 -17.4,-4.06 -22.4,-1.06 l -1,0 c -4.21,-1.69 -6.66,-0.33 -8,4 l -1,0 c -3,-5.47 -9.47,-3.9 -14,-1 l -7,0 -1,0 c -5,-1.65 -14,3 -17,7 -4,-1.38 -6.07,-0.95 -9,2 l -24,4 c 4.23,-7.43 17.38,-7.64 25,-9 7.39,-1.5 24.33,-5.46 29,-11.43 5,-6.09 5.44,-20.47 4,-27.57 l 3,-3 c 6.67,1.03 21.23,-2.2 26,-7 l 6,2 2,-4 1,0 4,2 c 0,-10 6.61,-19.96 10.83,-29 6.17,-13.19 11.45,-26.45 16.17,-40 z m -35,1 -11.13,26 -22.87,50 -1,0 21.58,-49 13.42,-27 z m -319.68,3.61 c 7.61,-3.58 25.67,9 24.27,17.39 -1.08,6.46 -6.36,3.29 -10.07,5.73 -2.04,1.34 -2.88,4 -5.04,5.27 -13.03,7.15 -18.73,-23.89 -9.16,-28.39 z m 286.68,0.39 c -0.74,14.2 -12.41,31.19 -18.45,44 -2.23,4.74 -3.95,11.22 -8.55,14 5,-17.74 15.89,-43.31 27,-58 z m 79,234 c 2.3,-12.67 15,-24.53 19.91,-37 12.42,-32 22.63,-66.58 25,-101 1.07,-15.48 0.6,-32.4 -5.11,-47 -3.84,-9.81 -14.24,-22.76 -15.18,-32.98 -0.67,-7.22 17.98,-10.96 23.38,-10.49 6.76,0.59 8.26,9.21 9.89,14.47 4.81,15.48 7.7,31 9.39,47 4.08,39 -20.17,111.03 -22.91,118 -2.74,6.97 -23.1,39.1 -44.37,49 z m 57,-229 c 19.36,27.22 19.88,76.35 14.57,108 -1.96,11.66 -3.65,23.51 -6.57,35 -0.78,3.73 -4,11.03 -2.36,14.71 1.99,4.54 7.36,-1.71 8.72,-3.71 5.89,-8 9,-18 13.39,-27 14.73,-29.88 24.8,-64.42 26.24,-98 l 1,0 c 0,46.17 -18.13,96.41 -42.78,135 -9.34,14.62 -18.72,29.79 -33.22,40 20.82,-37.92 40.99,-114.02 32.86,-156.58 -2.35,-12.35 -11.85,-47.42 -11.85,-47.42 z m -116,3 c -4.3,20.09 -18.19,41.4 -27,60 l -1,0 19.62,-44 8.38,-16 z m 68,0 0,1 -3,0 3,-1 z m -83,1 -24,52 5,2 17.63,-38 8.37,-15 -25,55 -6.29,-5.22 8.29,-19.95 14,-30.83 2,0 0,0 z m 92.99,16.06 c -7.99,1.06 -23,27.67 -9.99,26.75 8.25,-0.58 14.6,-5.52 15.79,-13.81 0.57,-3.94 0.5,-13.79 -5.8,-12.94 z m 1.01,2.94 c 5.94,11.13 -2,19.56 -13,21 0.85,-8.28 6,-16.48 13,-21 z m -100,52 0,1 c -4.17,4.77 -2.45,15.63 -6.6,19 -12.92,10.37 -36.1,10 -51.4,15.53 -16.56,6.14 -30.09,20.69 -48,23.47 5.79,-11 28.26,-10.84 31.25,-23.96 1.43,-6.29 -9.79,-5.24 -13.25,-4.87 -16.25,1.83 -31.39,7.91 -48,4.83 l 0,-1 55,-12 c -3.51,-11 -12.37,-7.32 -21.04,-7 -10.98,0.19 -26.48,0.1 -36.96,-3 l 0,-1 c 11.65,-4.95 25.6,-4 38,-4 3.99,0 13.34,1.08 16,-2.58 3.8,-4.88 -8.7,-6.29 -11,-7.01 -13.12,-4.12 -28.2,-6.41 -42,-6.41 1.95,-5.55 8.19,-3.4 13,-3.75 13.96,-1.04 26.41,2.75 40,3.75 4.51,0.24 16.29,1.7 16.96,-5 0.39,-3.87 -4.33,-6.48 -6.96,-8.34 -6,-4.15 -14.42,-8.97 -15,-16.66 l 35,17 34,8 21,14 z m 74,-19.2 c -14.52,4.81 -30.06,7.98 -45,11.21 -6,1.25 -13.63,0.27 -18.82,3.7 -6.18,4.05 -9.6,16.3 -6.44,23.07 3.1,6.63 18.63,2.5 24.26,2.23 20,-0.99 41,-1.69 61,-4.28 5.86,-0.72 16,0.28 20.57,-4.15 6.43,-6.37 3.54,-32.98 -0.46,-40.33 -2.72,-5.01 -27.57,6.05 -35.11,8.55 z m 29.95,-6.15 c 3.72,0.35 4.69,4.35 4.96,7.35 0.57,6.49 3.33,23.49 -2.34,28.14 -4.95,4.06 -15.59,2.19 -21.66,2.98 -18.55,2.42 -38.17,3.41 -56.91,3.89 -5.7,0.15 -14.29,3.03 -19.68,0.38 -7.49,-3.69 1.68,-17.57 6.68,-19.31 18.29,-6.4 39.24,-6.96 58,-12.97 8.87,-2.83 21.56,-11.11 30.95,-10.46 z m -26.95,46.92 c -7.55,2.22 -6.68,15.05 -7,21.43 -1,22.61 0,45.46 1,68 0.22,4.19 0.6,26.29 7.4,24.15 6.1,-1.92 9.6,-15.68 11.17,-21.15 2.7,-9.75 -1.57,-22.93 -2.4,-33 -1.22,-12.79 -0.17,-26 -0.17,-39 0,-7.69 2.96,-24.23 -10,-20.43 z m 2,110.43 c -5,-3 -4.06,-14.49 -4.71,-20 -2.47,-20.84 -1.29,-42 -1.29,-63 0,-5 -1.14,-21.61 4.3,-24 10.7,-4.99 5.54,20.39 6.12,25 1.51,12 -0.16,24.03 0.58,36 0.6,7.4 4.26,15.64 3.44,23 -0.91,8.17 -6.88,15.12 -8.44,23 z m -74,-104 -2,6 -1,0 3,-6 z m 7,0 -1,5 -1,0 2,-5 z m -23,2 -2,6 -1,0 3,-6 z m 7,0 -3,9 -1,0 4,-9 z m -15,4 0,1 -3,4 3,-5 z m -10,3 -5,12 -1,0 6,-12 z m 15,0 -1,4 -1,0 2,-4 z m -24,3 -4,10 -1,0 5,-10 z m 15,0 -3,8 -1,0 4,-8 z m -23,1 -3,8 -1,0 2,-8 2,0 z m -9,2 0,3 -1,0 1,-3 z m -9,4 -4,11 -1,0 5,-11 z m 14,3 -1,1 1,-1 z m -23,1 -6,14 -1,0 7,-14 z m -9,4 -14,32 -1,0 c 1.25,-8.35 7.62,-27.5 15,-32 z m 164,158 c -6,-5.37 -12,-33.57 3,-30.92 3.78,0.66 20.18,14.42 17.82,18.27 -1.37,2.23 -6.56,2.65 -8.82,3.65 -4.77,2 -8.61,5.13 -12,9 z"
           transform="translate(-33.13,15.52)"
           id="path632"
           inkscape:connector-curvature="0" />
      </g>
    </g>
    <g
       transform="matrix(0.4,0,0,0.4,236.59,667.12)"
       id="lys"
       style="fill:#ffffff;fill-opacity:1;stroke:none">
      <path
         d="m 355.65,280.19 c 0,0 -3.75,-8.1 -8.1,-12.6 -4.36,-4.51 -9.68,-7.58 -11.04,-6.53"
         transform="translate(-1.35,-0.76)"
         style="fill:#ffffff;fill-opacity:1;fill-rule:evenodd;stroke:none"
         id="lys_1"
         inkscape:connector-curvature="0" />
      <path
         d="m 368.97,258.94 c -2.29,0.08 -5.9,1.92 -7.85,3.87 -2.59,2.6 -3.52,7.58 -3.59,9.44 -0.07,1.86 -1.32,-0.84 -2.19,-2.37 -0.86,-1.54 -1.93,-5.4 -2.22,-3.22 -0.28,2.2 -0.34,3.26 0.07,5.72 0.4,2.45 1.59,7.15 2.56,8.68 l 3.97,3.94 c 1.87,-1.88 3.1,-6.25 3.19,-6.25 l -0.07,9.34 4.35,4.32 c -1.16,-2.37 -1.94,-6.58 -1.63,-10.38 0.32,-3.8 2.3,-8.59 2.06,-10.44 -1.14,-0.4 -2.9,2.58 -5.21,1.88 -0.08,-1.75 0.74,-6.02 1.9,-7.69 1.17,-1.66 4.43,-5.7 6.41,-6.28 -0.36,-0.42 -0.99,-0.59 -1.75,-0.56 z"
         style="fill:#ffffff;fill-opacity:1;fill-rule:evenodd;stroke:none"
         id="lys_2"
         inkscape:connector-curvature="0" />
      <path
         d="m 329.36,254.28 c 9.62,-4.95 19.64,8.3 19.64,8.3 0,0 1.44,-9.25 3.32,-9.36 1.88,-0.11 4.87,7.31 4.87,7.31 0,0 5.76,-7.64 15.72,-7.58 9.97,0.05 11.57,9.13 5.87,9.57 -5.66,0.44 -2.38,-5.15 -2.27,-3.65 0.06,0.17 -5.37,-7.75 -19.15,7.86 -2.03,2.3 -3.94,-8.46 -4.93,-6.09 -1.21,2.88 -0.22,6.26 -1.11,8.53 1.39,1.71 -11.35,-13.84 -16.77,-9.58"
         transform="translate(-1.35,-0.76)"
         style="fill:#ffffff;fill-opacity:1;fill-rule:evenodd;stroke:none"
         id="lys_3"
         inkscape:connector-curvature="0" />
      <use
         transform="matrix(0,1,1,0,74.5,-74.49)"
         xlink:href="#lys_3"
         style="fill:#ffffff;fill-opacity:1;stroke:none"
         id="use646"
         x="0"
         y="0"
         width="2178.99"
         height="1216.1899" />
      <use
         transform="matrix(0,1,1,0,74.9,-74.93)"
         xlink:href="#lys_1"
         style="fill:#ffffff;fill-opacity:1;stroke:none"
         id="use648"
         x="0"
         y="0"
         width="2178.99"
         height="1216.1899" />
      <use
         transform="matrix(0,1,1,0,74.82,-74.82)"
         xlink:href="#lys_2"
         style="fill:#ffffff;fill-opacity:1;stroke:none"
         id="use650"
         x="0"
         y="0"
         width="2178.99"
         height="1216.1899" />
    </g>
  </defs>
  <g
     id="black_joker"
     transform="translate(1.05,-972.25611)">
    <use
       height="1216.1899"
       width="2178.99"
       id="use3224"
       y="972.54999"
       x="0"
       xlink:href="#base" />
    <g
       id="joker_text">
      <text
         id="text3227"
         style="font-size:22px;font-weight:bold;font-family:Bitstream Vera Serif"
         transform="matrix(0.512616,0,0,1.170664,8.034702,763.1465)">JOKER</text>
      <text
         id="text3229"
         style="font-size:22px;font-weight:bold;font-family:Bitstream Vera Serif"
         transform="matrix(-0.512616,0,0,-1.170664,158.5403,953.5535)">JOKER</text>
    </g>
    <g
       id="Full_joker">
      <use
         height="1216.1899"
         width="2178.99"
         y="0"
         x="0"
         id="use3232"
         transform="matrix(0.203,0,0,0.203,441.265,911.431)"
         xlink:href="#joker" />
      <use
         height="1216.1899"
         width="2178.99"
         y="0"
         x="0"
         id="use3234"
         transform="matrix(0.91,0.415,0.415,-0.91,45.691,911.1)"
         xlink:href="#heart" />
      <use
         height="1216.1899"
         width="2178.99"
         y="0"
         x="0"
         id="use3236"
         transform="matrix(0.968,-0.249,-0.249,-0.968,57.447,931.033)"
         xlink:href="#diamond" />
      <use
         height="1216.1899"
         width="2178.99"
         y="0"
         x="0"
         id="use3238"
         transform="matrix(0.875,0.485,0.485,-0.875,80.395,932.899)"
         xlink:href="#club" />
      <use
         height="1216.1899"
         width="2178.99"
         y="0"
         x="0"
         id="use3240"
         transform="matrix(0.961,-0.277,-0.277,-0.961,56.06,885.779)"
         xlink:href="#spade" />
    </g>
  </g>
</svg>
